<?xml version="1.0" encoding="UTF-8"?>
<svg version="1.1" xmlns="http://www.w3.org/2000/svg" width="1920" height="1920">
<path d="M0 0 C2.89068295 0.00932261 5.78134378 0.01367958 8.67203903 0.0173378 C39.58981917 0.07173408 70.19909233 1.06493873 100.95551682 4.44662857 C102.77175919 4.64113767 104.58800267 4.83563645 106.40424728 5.03012466 C117.95291964 6.28555088 129.46011424 7.77467414 140.95551682 9.44662857 C141.7275444 9.55835403 142.49957199 9.6700795 143.29499435 9.78519058 C195.03447294 17.31316467 246.25795148 29.19714347 295.95551682 45.44662857 C297.18718582 45.84911819 297.18718582 45.84911819 298.44373703 46.25973892 C321.6181405 53.85379825 344.47593001 61.97606191 366.95551682 71.44662857 C367.87663254 71.8330452 367.87663254 71.8330452 368.81635666 72.22726822 C387.48544774 80.0599387 405.79608402 88.48978134 423.95551682 97.44662857 C424.71928635 97.82094009 425.48305588 98.19525162 426.26996994 98.58090591 C430.85350192 100.8277997 435.40885791 103.1261679 439.95551682 105.44662857 C440.84851486 105.89941177 441.74151291 106.35219498 442.6615715 106.81869888 C457.39349091 114.30319127 471.7909339 122.21607586 485.98139572 130.68149185 C488.88219191 132.40311034 491.79739757 134.09739583 494.71723557 135.78647232 C507.77606327 143.4025831 520.37276155 151.60855796 532.89301682 160.07162857 C534.04197937 160.84731689 534.04197937 160.84731689 535.21415329 161.63867569 C550.29106762 171.83668734 565.12612379 182.38093024 579.58051682 193.44662857 C580.89161423 194.44762589 580.89161423 194.44762589 582.22919846 195.46884537 C589.00505425 200.66558485 595.65159457 206.00599023 602.24848557 211.42709732 C605.27094733 213.90505694 608.34087821 216.31312471 611.4337883 218.7022438 C617.66154451 223.51573211 623.53675953 228.57751313 629.28364182 233.95444107 C631.5166694 236.03729428 633.77483129 238.07029353 636.08051682 240.07162857 C651.49738475 253.47074692 666.23585447 267.55649577 680.65620041 282.01694107 C682.97747996 284.34364302 685.30414344 286.66486685 687.63129807 288.98569107 C689.13552548 290.49057845 690.63944312 291.99577554 692.14301682 293.50131607 C692.82541428 294.1816893 693.50781174 294.86206253 694.21088791 295.56305313 C698.09946363 299.47043485 701.81246185 303.47953608 705.40671921 307.65971756 C707.80704667 310.42907332 710.32353231 313.08672782 712.83051682 315.75912857 C717.36900205 320.63248406 721.64900479 325.64966835 725.81879807 330.84506607 C727.91434175 333.39649586 730.09514836 335.8298963 732.33051682 338.25912857 C736.31163537 342.63284878 739.97218001 347.18991635 743.59223557 351.86093521 C746.56866922 355.69780828 749.60679438 359.47274746 752.69868088 363.21713638 C759.63171145 371.62722194 766.05365977 380.33162125 772.36127853 389.21713638 C773.87635071 391.33591726 775.41236055 393.43706862 776.95942307 395.53256607 C797.27003529 423.1152022 815.89865358 452.16091827 832.61176682 482.04721451 C833.86326706 484.28190645 835.12629057 486.50960598 836.39301682 488.73569107 C844.32685471 502.75126771 851.69180031 517.07511852 858.95551682 531.44662857 C859.2655162 532.05977921 859.57551559 532.67292984 859.89490891 533.3046608 C899.62706997 612.06664012 927.32345352 697.566331 958.15864182 934.53256607 C958.16566484 936.31123758 958.17275165 938.08990884 958.17989731 939.86857986 C958.19928985 945.51959981 958.20433126 951.1705787 958.20551682 956.82162857 C958.20595867 957.78447895 958.20640053 958.74732933 958.20685577 959.73935699 C958.21383749 988.74852721 957.93625388 1017.56426531 954.95551682 1046.44662857 C954.77670775 1048.23372813 954.59799965 1050.02083779 954.419384 1051.8079567 C945.58806649 1138.90832778 925.85883836 1224.99359382 827.669384 1443.5838356 C825.93365059 1446.48315327 824.22731948 1449.39819657 822.52582932 1452.31772232 C804.7979572 1482.55390636 784.93962048 1511.89185642 763.42231369 1539.55502701 C762.06446032 1541.30613352 760.71809805 1543.0651888 759.37739182 1544.82944107 C749.74617446 1557.4742974 739.65992926 1569.75049574 729.33246994 1581.8313942 C727.91430336 1583.494974 726.50476365 1585.16558733 725.09614182 1586.83725357 C718.27214301 1594.90610968 711.16831273 1602.66724759 703.91132736 1610.34726334 C702.4983143 1611.86399025 701.10057835 1613.39499887 699.71259689 1614.93466568 C691.81286439 1623.68319842 683.52918348 1632.02542071 675.18427658 1640.3482399 C672.75855051 1642.76857383 670.33825884 1645.19425077 667.91840744 1647.6204567 C666.35427507 1649.18392869 664.78983276 1650.74709069 663.22504807 1652.30990982 C662.51338989 1653.02359222 661.80173172 1653.73727463 661.06850815 1654.47258377 C657.08073578 1658.44199593 652.99909128 1662.24218627 648.73102951 1665.90922928 C645.96454561 1668.30470097 643.31164939 1670.81846974 640.64301682 1673.32162857 C635.87140787 1677.7612815 630.97383692 1681.96321998 625.88911057 1686.04428482 C622.40647978 1688.89623946 619.02779234 1691.85492919 615.64301682 1694.82162857 C609.15978296 1700.4834721 602.49196743 1705.84851024 595.68061447 1711.10824966 C593.95547593 1712.44666029 592.24103001 1713.79760415 590.52973557 1715.15365982 C577.3709634 1725.5805199 563.97999613 1735.54908216 550.07270432 1744.95834732 C546.46710994 1747.40254452 542.89492957 1749.88871363 539.33832932 1752.40365982 C528.02036335 1760.39870993 516.58145969 1767.90128394 504.61323166 1774.88217545 C501.76022581 1776.56158583 498.92882321 1778.27360828 496.10004807 1779.99350357 C447.72730726 1809.39004615 396.95801384 1834.53037121 343.95551682 1854.44662857 C342.93474045 1854.83479752 341.91396408 1855.22296646 340.8622551 1855.6228981 C303.89743879 1869.67164089 266.30603602 1880.89083509 227.95551682 1890.44662857 C226.76861252 1890.74424088 225.58170822 1891.04185318 224.35883713 1891.34848404 C130.77171412 1914.62195305 32.50075996 1921.83661344 -84.04448318 1913.44662857 C-84.92664505 1913.35941544 -85.80880692 1913.2722023 -86.71770096 1913.18234634 C-157.57446341 1906.15191596 -227.44919789 1891.92729943 -295.04448318 1869.44662857 C-296.42614195 1868.98971649 -297.80781517 1868.53284814 -299.18950272 1868.0760231 C-318.05700928 1861.81967737 -336.63972245 1854.96873843 -355.04448318 1847.44662857 C-356.11827225 1847.00883072 -357.19206131 1846.57103287 -358.29838943 1846.11996841 C-397.19594434 1830.17457038 -435.86450486 1811.89209678 -472.04448318 1790.44662857 C-473.05752518 1789.84898697 -474.07056717 1789.25134537 -475.1143074 1788.63559341 C-493.047246 1778.03525842 -510.80963989 1767.15450866 -528.04448318 1755.44662857 C-528.71882401 1754.99239517 -529.39316483 1754.53816177 -530.08794022 1754.07016373 C-548.23083407 1741.84712502 -565.74569404 1728.83162568 -583.04448318 1715.44662857 C-583.66693924 1714.96596939 -584.28939529 1714.48531021 -584.93071365 1713.9900856 C-592.4290398 1708.18964479 -599.75264349 1702.22332752 -606.95854568 1696.06381607 C-609.80053884 1693.63971101 -612.69738384 1691.28931458 -615.60698318 1688.94662857 C-620.59616736 1684.88837089 -625.32118934 1680.60147291 -630.02495193 1676.22006607 C-632.23894406 1674.16623854 -634.49736207 1672.17253658 -636.7783699 1670.19345474 C-649.74506041 1658.8624848 -661.94677937 1646.70574608 -674.10234451 1634.51913834 C-676.63203622 1631.98402181 -679.16711852 1629.4543822 -681.70268631 1626.9251442 C-683.3390752 1625.2880954 -684.97515436 1623.65073691 -686.61088943 1622.01303482 C-687.35577118 1621.27017731 -688.10065292 1620.52731979 -688.86810684 1619.76195145 C-692.92293217 1615.68908892 -696.81325927 1611.52738108 -700.56024551 1607.16897964 C-702.6249974 1604.77298357 -704.77340001 1602.45724554 -706.91948318 1600.13412857 C-711.06693577 1595.59138172 -714.97681014 1590.90542895 -718.83745193 1586.11850357 C-720.96071656 1583.54803807 -723.16260167 1581.08743494 -725.41948318 1578.63412857 C-729.40131905 1574.25962031 -733.06190402 1569.70133782 -736.6833992 1565.03012466 C-739.64483016 1561.21362189 -742.66376604 1557.45471594 -745.73662186 1553.72739029 C-786.41902532 1504.31025352 -819.86669217 1448.24691065 -849.04448318 1391.44662857 C-849.55881912 1390.45195572 -850.07315506 1389.45728287 -850.60307693 1388.43246841 C-870.17474409 1350.49101018 -886.27001742 1310.83501282 -900.04448318 1270.44662857 C-900.38579269 1269.44780655 -900.38579269 1269.44780655 -900.73399734 1268.4288063 C-929.28569286 1184.71636193 -945.98712805 1097.44744844 -951.24760818 982.36069107 C-951.2546312 980.58206534 -951.26171801 978.80343985 -951.26886368 977.02481461 C-951.2882568 971.37374888 -951.29329771 965.72272422 -951.29448318 960.07162857 C-951.29492504 959.10863091 -951.2953669 958.14563324 -951.29582214 957.15345383 C-951.30259652 929.00040755 -951.15247849 900.98017571 -948.29771805 872.94418716 C-948.03158952 870.31946325 -947.77742227 867.69374635 -947.52446365 865.06772232 C-939.08346886 778.4879425 -918.89063708 693.05537222 -881.04448318 595.44662857 C-880.33195389 593.73298111 -880.33195389 593.73298111 -879.60503006 591.98471451 C-864.62092494 556.14328783 -848.14495668 520.7684972 -828.60942459 487.1619606 C-826.97230228 484.32138738 -825.36972998 481.46351728 -823.77495193 478.59897232 C-802.89137978 441.10705862 -778.33839857 405.33343931 -752.04448318 371.44662857 C-751.50629959 370.75246841 -750.968116 370.05830826 -750.41362381 369.34311295 C-741.37872401 357.71345538 -732.03427158 346.35267229 -722.48588943 335.14242935 C-721.04248703 333.44428011 -719.60566896 331.74072664 -718.16948318 330.03647232 C-712.30397509 323.10352801 -706.27142196 316.36661805 -700.02763748 309.7713356 C-697.25622171 306.84044616 -694.5452855 303.88247084 -691.92241287 300.81747818 C-687.70698627 295.98904157 -683.20967341 291.4680172 -678.67338943 286.94272232 C-677.79222961 286.06060577 -676.91106979 285.17848923 -676.00320816 284.26964188 C-673.67871568 281.94430048 -671.35182411 279.62139239 -669.02409744 277.2992897 C-667.6080364 275.88518034 -666.19393997 274.46913736 -664.78056717 273.05234146 C-662.03920062 270.30476138 -659.29435284 267.56070751 -656.54838943 264.81772232 C-655.71481415 263.9821228 -654.88123886 263.14652328 -654.02240372 262.28560257 C-649.72472957 258.00491196 -645.3611567 253.86762125 -640.75523758 249.91926956 C-638.1825368 247.70465323 -635.71592014 245.38533768 -633.23198318 243.07162857 C-628.53553664 238.72782644 -623.68173364 234.64246431 -618.69682693 230.63022232 C-616.05180681 228.45265789 -613.51235794 226.19344094 -610.98198318 223.88412857 C-607.05065522 220.31019405 -603.0152927 216.93966106 -598.84135818 213.65365982 C-596.7967646 212.04025846 -594.76754656 210.4145113 -592.74760818 208.77084732 C-584.30045404 201.91483405 -575.65288952 195.38086237 -566.86088943 188.97397232 C-563.86395936 186.78946663 -560.89165022 184.57972948 -557.94682693 182.32553482 C-519.74474545 153.26725696 -477.79473132 128.73559442 -435.25542068 106.64975357 C-432.57408675 105.25618954 -429.91409052 103.8333236 -427.27104568 102.36850357 C-356.74117767 63.53266645 -275.96179635 37.45874287 -165.04448318 14.44662857 C-164.37127029 14.32179092 -163.6980574 14.19695328 -163.00444412 14.06833267 C-146.40427419 11.01201025 -129.69151567 8.79138235 -112.94530106 6.71304703 C-110.92394997 6.46193949 -108.90295672 6.20792442 -106.88243484 5.95022964 C-71.37559346 1.45735388 -35.76465963 -0.12278566 0 0 Z " fill="#0D161E" transform="translate(954.0444831848145,-0.4466285705566406)"/>
<path d="M0 0 C0.95708359 0.00222061 1.91416718 0.00444122 2.9002533 0.00672913 C3.98129837 0.00680466 5.06234344 0.00688019 6.17614746 0.00695801 C7.94018166 0.01469994 7.94018166 0.01469994 9.73985291 0.02259827 C10.93702438 0.02401321 12.13419586 0.02542816 13.36764526 0.02688599 C17.20918732 0.03250472 21.05067208 0.04506041 24.89219666 0.05775452 C27.48920102 0.0627671 30.0862063 0.06733043 32.68321228 0.07142639 C39.06539344 0.08248024 45.44754096 0.0992366 51.82969666 0.12025452 C56.46962829 9.84659905 61.0021791 19.57897096 65.07969666 29.55775452 C65.56293396 30.73168762 66.04617126 31.90562073 66.54405212 33.11512756 C72.62534887 47.93116545 78.53113172 62.81973452 84.44786072 77.70204163 C88.91361788 88.92158241 93.46213651 100.10052494 98.12556458 111.23939514 C102.53042266 121.76893639 106.81151151 132.34723066 111.07969666 142.93275452 C111.91298008 144.99657675 112.74631433 147.06037846 113.57969666 149.12416077 C118.62968433 161.63582424 123.65349851 174.1577629 128.65534973 186.68873596 C136.58654679 206.55555142 144.62384129 226.37957499 152.65080261 246.20783997 C154.53261935 250.85679929 156.41353957 255.50612128 158.29454041 260.15541077 C161.45529535 267.96755346 164.6176685 275.77903961 167.78105164 283.59011841 C169.81277637 288.60732577 171.84276642 293.62523068 173.87142944 298.64367676 C180.07520808 313.9888509 186.27872621 329.33208185 192.68687439 344.59339905 C194.3680759 348.5977632 196.0308509 352.60598616 197.63047791 356.64369202 C199.48828425 361.31314027 201.41916492 365.95014201 203.36094666 370.58509827 C203.68106216 371.34974899 204.00117767 372.11439972 204.33099365 372.90222168 C205.66538111 376.08845003 207.00042311 379.27439571 208.338974 382.45887756 C215.20692524 398.80580582 215.20692524 398.80580582 218.02305603 406.9644928 C218.81995274 409.09421373 219.76089524 411.05262975 220.82969666 413.05775452 C222.52539808 416.28420586 223.66524152 419.52121924 224.76719666 422.99525452 C226.28295772 427.72680672 228.11987416 432.01362248 230.48594666 436.37806702 C232.51796783 440.5248079 234.13720774 444.82592373 235.82969666 449.12025452 C236.65226435 451.16388859 237.47654759 453.20683282 238.30235291 455.24916077 C239.1656629 457.39368044 240.02894381 459.53821183 240.89219666 461.68275452 C241.32596619 462.75460999 241.75973572 463.82646545 242.20664978 464.93080139 C248.82969666 481.41281302 248.82969666 481.41281302 248.82969666 486.12025452 C249.48969666 486.12025452 250.14969666 486.12025452 250.82969666 486.12025452 C251.01145447 486.73771545 251.19321228 487.35517639 251.38047791 487.99134827 C251.63184509 488.83826233 251.88321228 489.68517639 252.14219666 490.55775452 C252.54245056 491.92093811 252.54245056 491.92093811 252.95079041 493.31166077 C253.51305956 495.10842308 254.12614457 496.89054286 254.80235291 498.64759827 C255.10012634 499.42232483 255.39789978 500.19705139 255.70469666 500.99525452 C255.99086853 501.69392639 256.27704041 502.39259827 256.57188416 503.11244202 C256.82969666 505.12025452 256.82969666 505.12025452 255.81835938 507.21636963 C252.91631296 509.99470014 250.07542481 509.65750316 246.26890564 509.59022522 C245.50114807 509.59241562 244.7333905 509.59460602 243.94236755 509.59686279 C241.40307117 509.59917549 238.86493231 509.57291199 236.32579041 509.54603577 C234.56367359 509.54111317 232.80155155 509.53781344 231.03942871 509.53607178 C227.34638271 509.52842824 223.65372379 509.50785588 219.96080017 509.47694397 C215.22032693 509.43733991 210.48010555 509.41933113 205.73948574 509.40963459 C201.22655297 509.39967335 196.71368211 509.37977427 192.20079041 509.35853577 C191.3359094 509.35514002 190.4710284 509.35174427 189.57993889 509.34824562 C187.14024821 509.33670057 184.70071917 509.31818487 182.26109314 509.29725647 C181.53428848 509.29456757 180.80748383 509.29187866 180.05865479 509.28910828 C175.05952122 509.2351668 175.05952122 509.2351668 172.82969666 508.12025452 C169.94056933 508.2096387 167.08576411 508.35430251 164.20469666 508.55775452 C163.40289978 508.60996155 162.60110291 508.66216858 161.77500916 508.71595764 C159.79290562 508.84573823 157.81125167 508.98235187 155.82969666 509.12025452 C155.49969666 508.46025452 155.16969666 507.80025452 154.82969666 507.12025452 C154.16969666 507.12025452 153.50969666 507.12025452 152.82969666 507.12025452 C148.20226378 498.45011596 144.60064753 489.41743568 140.95469666 480.30775452 C140.30458763 478.69258536 139.65402603 477.07759829 139.0030365 475.46278381 C137.64269033 472.08727804 136.2843138 468.71098973 134.92735291 465.3341217 C131.78461972 457.51736337 128.62031222 449.70934374 125.4551239 441.9016571 C124.465823 439.46021266 123.47796208 437.01818952 122.49034119 434.57606506 C121.88735397 433.08687238 121.28432871 431.5976951 120.68125916 430.10853577 C120.40592346 429.42695404 120.13058777 428.74537231 119.84690857 428.0431366 C118.4289102 424.54139027 118.4289102 424.54139027 116.82969666 421.12025452 C28.22469666 420.62525452 28.22469666 420.62525452 -62.17030334 420.12025452 C-63.16030334 423.42025452 -64.15030334 426.72025452 -65.17030334 430.12025452 C-66.2175326 433.07250613 -67.28286046 436.00492651 -68.39295959 438.93275452 C-68.69476639 439.73653534 -68.99657318 440.54031616 -69.30752563 441.36845398 C-70.27931731 443.95364417 -71.25594064 446.53697675 -72.23280334 449.12025452 C-72.90862328 450.91493779 -73.58424018 452.70969752 -74.25965881 454.50453186 C-78.43279035 465.58143202 -82.6408407 476.64477265 -86.93617249 487.67494202 C-89.8247001 495.11613212 -92.48201028 502.59303392 -95.17030334 510.12025452 C-129.49030334 510.12025452 -163.81030334 510.12025452 -199.17030334 510.12025452 C-196.91978995 499.99294424 -196.91978995 499.99294424 -195.7000885 496.68519592 C-195.42368027 495.92760483 -195.14727203 495.17001373 -194.86248779 494.38946533 C-194.56445755 493.59164139 -194.26642731 492.79381744 -193.95936584 491.97181702 C-193.47902641 490.66686028 -193.47902641 490.66686028 -192.98898315 489.33554077 C-191.93108697 486.4695941 -190.86372247 483.60729346 -189.79530334 480.74525452 C-189.24339828 479.25809433 -189.24339828 479.25809433 -188.68034363 477.7408905 C-180.59720216 455.96495548 -172.10274857 434.35262744 -163.55963135 412.75396729 C-160.96491755 406.17877556 -158.43061638 399.58260172 -155.92811584 392.97181702 C-152.9508229 385.10890625 -149.838612 377.32040921 -146.60780334 369.55775452 C-142.98343464 360.76420423 -139.5948064 351.94264739 -136.53041077 342.93934631 C-134.37221069 336.61068591 -131.96006855 330.4204155 -129.43592834 324.22962952 C-128.47543617 321.86990182 -127.54891707 319.51090118 -126.67030334 317.12025452 C-125.28442951 313.36209075 -123.78896184 309.64901402 -122.29530334 305.93275452 C-118.14664979 295.59506299 -114.15412641 285.21929146 -110.47889709 274.70228577 C-109.13476574 271.02297697 -107.68936048 267.39628289 -106.22523499 263.76356506 C-104.48513855 259.40345766 -102.83069027 255.01119963 -101.17030334 250.62025452 C-97.39411615 240.63400949 -93.42872868 230.73769997 -89.36634827 220.86463928 C-85.00740306 210.24918087 -80.78866439 199.6010423 -76.80531311 188.83924866 C-72.4278199 177.04404158 -67.83306307 165.33350117 -63.25990295 153.61317444 C-61.89553689 150.11598835 -60.53246595 146.6182994 -59.17030334 143.12025452 C-58.48641541 141.36443054 -58.48641541 141.36443054 -57.78871155 139.57313538 C-55.02643759 132.44110853 -52.4120311 125.26653251 -49.85780334 118.05775452 C-45.89396925 106.96349422 -41.61834445 96.02748991 -37.17030334 85.12025452 C-35.85226639 81.87246955 -34.54021036 78.62233277 -33.23280334 75.37025452 C-32.74263733 74.1519696 -32.74263733 74.1519696 -32.24256897 72.90907288 C-29.58930916 66.26881179 -27.09151915 59.57544668 -24.60780334 52.87025452 C-21.90338357 45.58754034 -19.10529858 38.39317669 -15.9176178 31.30848694 C-12.59574635 23.91897863 -9.53628542 16.42034111 -6.45765686 8.92689514 C-6.04572083 7.9298053 -5.63378479 6.93271545 -5.20936584 5.90541077 C-4.84021057 5.00701477 -4.4710553 4.10861877 -4.0907135 3.18299866 C-2.73813572 0.15171759 -2.73813572 0.15171759 0 0 Z " fill="#BFEEE5" transform="translate(739.1703033447266,681.8797454833984)"/>
<path d="M0 0 C0 40.59 0 81.18 0 123 C-4.2799425 121.93001437 -5.11627156 121.18005248 -8.125 118.1875 C-38.16648007 90.39913094 -80.07351319 75.51157584 -120.5625 75.625 C-121.66960327 75.62581573 -121.66960327 75.62581573 -122.79907227 75.62664795 C-164.98277292 75.76871505 -199.46494624 92.66797864 -230 121 C-230.66515625 121.59941406 -231.3303125 122.19882812 -232.015625 122.81640625 C-251.41628586 141.07353223 -263.49182163 167.57552748 -270 193 C-270.27585937 194.01578125 -270.55171875 195.0315625 -270.8359375 196.078125 C-281.97661446 238.21415073 -272.51923778 280.84133389 -251.28125 318.0078125 C-247.68557002 323.82535134 -243.62905171 329.24003409 -239.37548828 334.58666992 C-237.66666349 336.74644395 -236.11753474 338.7460017 -234.95703125 341.25390625 C-233.69455858 343.55727475 -232.340441 343.84432931 -230 345 C-228.22321177 346.76243614 -226.51536571 348.54462222 -224.8125 350.375 C-201.50232836 374.41681544 -164.54052918 389.57164292 -131.29296875 390.25390625 C-117.77902518 390.45626004 -104.33867753 390.39446848 -91 388 C-89.19556172 387.71586066 -87.39085123 387.43344708 -85.5859375 387.15234375 C-75.41749895 385.50981567 -66.31300433 383.51954622 -57 379 C-55.39827406 378.2913326 -53.79384202 377.58876595 -52.1875 376.890625 C-43.47559346 373.08958054 -34.89957334 369.33493391 -27 364 C-26.4023584 363.60022949 -25.8047168 363.20045898 -25.18896484 362.78857422 C-17.78997023 357.82790496 -10.48124701 352.81562254 -3.6015625 347.14453125 C-2 346 -2 346 0 346 C0 385.27 0 424.54 0 465 C-34.78457447 482.39228723 -34.78457447 482.39228723 -50.91796875 485.53515625 C-53.22686539 486.050651 -55.39355735 486.77868233 -57.625 487.5625 C-61.43293525 488.89193704 -65.0071934 489.50089917 -69 490 C-69.33 490.33 -69.66 490.66 -70 491 C-73.51358342 491.67159813 -77.07626959 492.05709178 -80.625 492.5 C-82.2332666 492.7007312 -82.2332666 492.7007312 -83.87402344 492.90551758 C-94.89914487 494.2114637 -105.90619913 494.74568114 -117 495 C-118.73636719 495.04447266 -118.73636719 495.04447266 -120.5078125 495.08984375 C-126.28777726 495.16071525 -132.04325838 494.88239586 -137.8125 494.5625 C-138.51874512 494.52334473 -139.22499023 494.48418945 -139.95263672 494.44384766 C-144.34599133 494.17296045 -148.6459417 493.6269449 -153 493 C-156.66121596 492.71986445 -160.32291135 492.49938041 -163.98828125 492.28125 C-167 492 -167 492 -169 491 C-171.08185451 490.77737394 -173.16560426 490.57242074 -175.25 490.375 C-227.80576301 484.1660444 -284.0166501 446.26619493 -317 406.125 C-318.33523592 404.41815332 -319.66863336 402.7098665 -321 401 C-322.47832177 399.24928621 -323.9575142 397.49930731 -325.4375 395.75 C-339.47414637 378.48346788 -350.19666173 358.36830684 -359 338 C-359.462854 336.95585938 -359.462854 336.95585938 -359.93505859 335.890625 C-374.81534503 302.06440009 -381.45587043 265.83159029 -381.375 229.0625 C-381.37412384 228.08132202 -381.37324768 227.10014404 -381.37234497 226.0892334 C-381.29781931 200.67005127 -377.70732365 177.26406611 -370 153 C-369.64695801 151.85418457 -369.29391602 150.70836914 -368.93017578 149.52783203 C-358.16539372 114.86438431 -340.64906928 82.9496033 -316.0234375 56.20703125 C-314.25551137 54.27869483 -312.56153954 52.31152022 -310.875 50.3125 C-301.83565812 39.96981115 -291.89733541 30.35658201 -281 22 C-279.84603824 21.08242842 -278.69241347 20.16443294 -277.5390625 19.24609375 C-258.05349515 3.95998037 -235.89375111 -7.70020765 -213 -17 C-211.24236328 -17.73863281 -211.24236328 -17.73863281 -209.44921875 -18.4921875 C-142.29205047 -45.85645248 -61.78387629 -35.30507216 0 0 Z " fill="#AFECE0" transform="translate(1383,709)"/>
<path d="M0 0 C2.23361052 -0.05205597 4.46912571 -0.04340882 6.70263916 0.01265734 C7.94154049 -0.00003494 9.18044182 -0.01272723 10.45688561 -0.02580413 C13.90131169 -0.04993667 17.3390041 -0.02469838 20.78278654 0.02125534 C24.5262018 0.05906451 28.26925745 0.03294743 32.01274455 0.01490295 C38.57468947 -0.00790675 45.13553739 0.01016674 51.69735485 0.05492324 C61.45430362 0.12128812 71.21056016 0.1246194 80.96769348 0.11496136 C97.380065 0.10050467 113.79194956 0.13727741 130.20417935 0.20315284 C146.45649901 0.26821934 162.70861591 0.31057393 178.96106488 0.32253379 C179.9712305 0.32328992 180.98139613 0.32404606 182.02217283 0.32482511 C187.15220268 0.32854672 192.2822327 0.33186196 197.41226292 0.33502074 C233.75721994 0.35813109 270.10191198 0.43225802 306.44671971 0.53634948 C341.75725224 0.63736212 377.06771228 0.71528966 412.37836033 0.76193541 C413.46660641 0.7633822 414.55485248 0.76482899 415.67607571 0.76631962 C426.60459638 0.78082322 437.53311762 0.79485719 448.46163933 0.80854707 C470.7247008 0.83644612 492.98775754 0.8674799 515.25081211 0.90040892 C516.27445251 0.90191911 517.2980929 0.9034293 518.35275271 0.90498526 C586.72069242 1.0062087 655.08848511 1.1805078 723.45624119 1.36618346 C721.94184474 5.27544359 720.15916963 8.69746929 717.96405369 12.27633971 C717.6180109 12.84332076 717.27196812 13.41030181 716.91543919 13.9944641 C715.80761537 15.80808713 714.69467671 17.61850134 713.58124119 19.42868346 C712.5322648 21.14071475 711.48426949 22.8532457 710.44186069 24.5692849 C709.69703426 25.78022288 708.93983719 26.98369409 708.16696452 28.1769271 C705.83985999 31.82809684 703.98183775 35.40162562 702.38154298 39.42834276 C699.57350444 45.93215206 696.559327 52.66054194 689.6879921 55.51693702 C681.76091115 57.27115676 673.66058224 57.00910166 665.58824329 56.81150732 C661.85392938 56.74242259 658.12075319 56.79030941 654.38619596 56.82305712 C647.84738997 56.86443093 641.31223167 56.83185536 634.77385098 56.75029296 C625.0524123 56.62936159 615.33326368 56.62359559 605.61120993 56.64113273 C589.25679173 56.66738628 572.90399186 56.60068128 556.5500446 56.4807846 C540.36041333 56.36239711 524.17145628 56.28545695 507.9813953 56.26372832 C506.47082145 56.26166613 506.47082145 56.26166613 504.92973096 56.25956228 C499.81532642 56.25279551 494.70092129 56.24676788 489.58651552 56.24102476 C453.37157088 56.19902885 417.15750647 56.06431781 380.9430576 55.87497252 C345.7637432 55.69125182 310.58466976 55.5495959 275.40497166 55.46481627 C274.32037133 55.46218575 273.23577099 55.45955523 272.11830398 55.45684499 C261.22618945 55.43047433 250.33407306 55.40495809 239.44195506 55.3800678 C217.25393487 55.32934507 195.06593039 55.27292003 172.87793308 55.21304625 C171.85779012 55.21030045 170.83764715 55.20755465 169.78659076 55.20472565 C101.67610818 55.02074706 33.56611386 54.70384698 -34.54375881 54.36618346 C-33.86556843 50.68035166 -32.94897788 47.88481914 -31.13750881 44.59274596 C-30.39923855 43.24273497 -30.39923855 43.24273497 -29.64605373 41.86545104 C-28.85291775 40.44268859 -28.85291775 40.44268859 -28.04375881 38.99118346 C-27.50275539 38.01109313 -26.96175197 37.0310028 -26.40435451 36.02121276 C-22.34010111 28.69859585 -18.25731503 21.34925004 -13.71630401 14.30774989 C-12.4496783 12.27630447 -12.4496783 12.27630447 -11.22522702 9.65771062 C-8.34605965 4.23280718 -6.37760731 0.75510449 0 0 Z " fill="#283139" transform="translate(626.5437588095665,1414.6338165402412)"/>
<path d="M0 0 C2.20587135 -0.05677359 4.41403729 -0.04736215 6.61979109 0.01380801 C8.45535004 -0.00696119 8.45535004 -0.00696119 10.32799098 -0.02814996 C13.73030453 -0.05447808 17.12450421 -0.02695301 20.52604194 0.02318764 C24.22327954 0.06443774 27.9200842 0.03594218 31.61740839 0.01625776 C38.09832556 -0.00862479 44.57792085 0.01108867 51.05868441 0.05991626 C60.69505654 0.13231733 70.33059462 0.13594827 79.96718915 0.12541239 C96.17675339 0.10964175 112.38573085 0.14975584 128.5951243 0.22162127 C144.64649074 0.29260382 160.69761283 0.33880807 176.74913508 0.35185504 C177.74682358 0.35267992 178.74451208 0.35350479 179.77243357 0.35435466 C184.83910298 0.35841461 189.9057726 0.36203123 194.97244246 0.36547717 C230.86819908 0.39068824 266.76363639 0.47155329 302.65921313 0.58510852 C337.53321928 0.69530476 372.40713808 0.78031629 407.28128344 0.83120227 C408.35608301 0.83278058 409.43088258 0.8343589 410.53825184 0.83598504 C421.3317418 0.85180715 432.12523244 0.86711694 442.91872366 0.88205135 C464.9066928 0.91248665 486.89465623 0.94634168 508.88261706 0.98226428 C509.89360805 0.98391176 510.90459905 0.98555924 511.94622613 0.98725664 C579.46893338 1.09768158 646.99146348 1.28782599 714.51394945 1.49038196 C713.2805867 5.97283012 712.01525723 9.78629561 709.6428557 13.79116321 C708.78856982 15.24510486 708.78856982 15.24510486 707.91702563 16.72841907 C707.00594042 18.2502782 707.00594042 18.2502782 706.07644945 19.80288196 C705.14506151 21.37791492 705.14506151 21.37791492 704.19485766 22.98476672 C688.42211688 49.58221453 688.42211688 49.58221453 686.51394945 51.49038196 C684.93612666 51.5878224 683.35391857 51.61485495 681.77308989 51.61458045 C680.73878221 51.61682775 679.70447453 51.61907504 678.63882419 51.62139043 C677.48632249 51.61876342 676.33382079 51.6161364 675.14639479 51.61342978 C673.92961189 51.61458363 672.71282899 51.61573747 671.45917389 51.61692628 C668.05124709 51.61913245 664.6433757 51.61680375 661.23545412 51.61264815 C657.53948609 51.60923088 653.84352123 51.6115815 650.14755261 51.61322564 C643.65984746 51.61530535 637.17215144 51.61364547 630.68444735 51.60958743 C621.03736165 51.60356991 611.39028176 51.60324999 601.74319453 51.60412942 C585.51784626 51.60544556 569.29250204 51.60209343 553.06715494 51.59611201 C536.99411219 51.59020188 520.92107112 51.58634746 504.84802729 51.5852592 C503.84992635 51.58519046 502.85182541 51.58512172 501.82347898 51.5850509 C496.7549556 51.58471258 491.68643222 51.58441119 486.61790884 51.58412402 C450.68571224 51.5820217 414.75351785 51.57527904 378.8213225 51.56582141 C343.90628356 51.55664209 308.99124522 51.54955597 274.07620531 51.5453136 C273.00061658 51.54518207 271.92502785 51.54505054 270.81684552 51.54491503 C260.0156772 51.54359655 249.21450888 51.54232073 238.41334055 51.54107617 C216.4086739 51.53853973 194.40400728 51.53571848 172.39934069 51.5327251 C170.88161859 51.53251916 170.88161859 51.53251916 169.33323543 51.53230907 C101.72680585 51.52310311 34.1203775 51.50725729 -33.48605055 51.49038196 C-32.85286106 48.06100199 -32.16213185 45.55090748 -30.29855055 42.59194446 C-29.85156812 41.87280871 -29.4045857 41.15367297 -28.94405836 40.41274524 C-28.46291578 39.65461535 -27.9817732 38.89648547 -27.48605055 38.11538196 C-26.48030312 36.50113438 -25.47510287 34.88654576 -24.47042555 33.27163196 C-23.96704664 32.46725696 -23.46366773 31.66288196 -22.94503492 30.83413196 C-20.83833691 27.44987812 -18.78258381 24.0362494 -16.73605055 20.61538196 C-15.72460042 18.9309591 -14.71209775 17.24699848 -13.67515126 15.57815047 C-12.38396893 13.38754794 -12.38396893 13.38754794 -11.1591441 10.54421537 C-6.43458619 0.83991059 -6.43458619 0.83991059 0 0 Z " fill="#5C6A72" transform="translate(613.4860505461693,432.50961804389954)"/>
<path d="M0 0 C0.89269994 -0.00115384 1.78539987 -0.00230769 2.70515132 -0.0034965 C5.71781399 -0.00615838 8.73042397 -0.00164447 11.74308395 0.00279331 C13.91618129 0.00235752 16.08927858 0.00148247 18.26237559 0.00020415 C24.25057269 -0.0020393 30.238752 0.00197845 36.22694683 0.00698221 C42.67819787 0.01128865 49.12944785 0.00984014 55.58069992 0.00907993 C66.76348474 0.00838181 77.9462641 0.01166549 89.12904739 0.01731777 C100.85947065 0.02323168 112.58989158 0.02708309 124.32031631 0.02817059 C125.04925976 0.02823933 125.77820321 0.02830806 126.52923585 0.02837889 C130.23106364 0.02871721 133.93289143 0.0290186 137.63471922 0.02930576 C163.86523935 0.03140703 190.09575645 0.03814679 216.32627487 0.04760838 C241.81130075 0.05679046 267.2963258 0.06387522 292.781353 0.06811619 C293.95937395 0.06831348 293.95937395 0.06831348 295.16119331 0.06851475 C303.04786319 0.06983325 310.93453307 0.07110907 318.82120296 0.07235361 C334.88773332 0.07488993 350.95426363 0.07771118 367.02079391 0.08070469 C368.12890094 0.08091062 368.12890094 0.08091062 369.25939396 0.08112072 C418.60395457 0.09032377 467.94851315 0.10639732 517.29307175 0.12304783 C517.29307175 21.90304783 517.29307175 43.68304783 517.29307175 66.12304783 C359.22307175 66.12304783 201.15307175 66.12304783 38.29307175 66.12304783 C37.63307175 62.16304783 36.97307175 58.20304783 36.29307175 54.12304783 C33.70052767 48.93795968 30.13269533 45.50302427 24.58872604 43.510499 C21.24150878 42.94556932 17.9401025 43.12330518 14.562603 43.23632908 C13.02161897 43.26848012 11.48060081 43.29902737 9.93955612 43.32812595 C7.52739821 43.37729376 5.11707129 43.43513951 2.70591354 43.52075291 C-13.67744312 44.07803284 -13.67744312 44.07803284 -20.13344193 38.73852634 C-24.82647281 33.92025088 -26.95083446 28.36980548 -27.45692825 21.68554783 C-27.12586643 15.02647575 -23.99057911 10.08174873 -19.70692825 5.12304783 C-13.70921993 0.20791342 -7.44304383 -0.02346233 0 0 Z " fill="#2E363E" transform="translate(702.7069282531738,1283.8769521713257)"/>
<path d="M0 0 C1.21109436 0.00496994 1.21109436 0.00496994 2.44665527 0.01004028 C3.06045044 0.01430023 3.67424561 0.01856018 4.30664062 0.02294922 C4.585393 7.85461633 4.79823551 15.6851114 4.92838669 23.52050114 C4.99087929 27.15974315 5.07550834 30.79558008 5.21191406 34.43286133 C5.34288576 37.94747839 5.41415361 41.45883656 5.44516754 44.9757061 C5.47795068 46.96138682 5.57155716 48.94576368 5.66619873 50.92945862 C5.66896489 54.65502883 5.54886388 57.50630728 4.30664062 61.02294922 C0.66518254 64.26864747 -3.2938699 66.01036468 -7.69335938 68.02294922 C-26.40356554 81.02035815 -37.09488473 100.49254906 -42.04559863 122.35942018 C-43.13470704 128.51907142 -43.11613202 134.63716383 -43.09208679 140.87361145 C-43.09753878 142.32851657 -43.10429551 143.78341728 -43.11222869 145.23831099 C-43.13011639 149.1995429 -43.12971402 153.16058602 -43.12609923 157.1218487 C-43.12547192 161.40730744 -43.14212763 165.6927047 -43.15661621 169.97813416 C-43.17934392 177.39076514 -43.19127723 184.80334932 -43.19574547 192.21601295 C-43.20222148 202.93328595 -43.22518433 213.65047454 -43.25208876 224.36771341 C-43.2953021 241.75839535 -43.32529996 259.14907372 -43.34692383 276.53979492 C-43.36794988 293.42685701 -43.39523917 310.31388995 -43.4309082 327.20092773 C-43.43310703 328.24296078 -43.43530585 329.28499383 -43.43757131 330.35860363 C-43.44864137 335.58651055 -43.4598341 340.81441719 -43.47108781 346.04232371 C-43.56419566 389.36917462 -43.63501031 432.69603872 -43.69335938 476.02294922 C-60.85335937 476.02294922 -78.01335937 476.02294922 -95.69335938 476.02294922 C-95.80655102 427.98769903 -95.89599355 379.95248104 -95.94868602 331.91712376 C-95.95493905 326.23739218 -95.96141071 320.55766087 -95.96801758 314.87792969 C-95.96932913 313.7472669 -95.97064068 312.61660412 -95.97199198 311.45167883 C-95.99370839 293.17916242 -96.03310904 274.90672522 -96.07912336 256.63425569 C-96.12599299 237.86464843 -96.15367692 219.09508245 -96.16380185 200.32541907 C-96.17063927 188.75712974 -96.19218116 177.18906432 -96.23294171 165.62084396 C-96.25950998 157.67235776 -96.26732872 149.72398617 -96.26086626 141.77545886 C-96.25768514 137.19952803 -96.2623252 132.62398659 -96.28938675 128.04812622 C-96.50647253 89.3641133 -89.93794203 57.76683581 -62.13085938 29.02294922 C-46.64283743 13.5225428 -22.32986188 -0.11899133 0 0 Z " fill="#4C5860" transform="translate(545.693359375,431.97705078125)"/>
<path d="M0 0 C16.83 0 33.66 0 51 0 C51.01030746 3.98820328 51.02061493 7.97640656 51.03123474 12.08546448 C51.12629684 48.69516678 51.22612344 85.30485361 51.33111694 121.91452882 C51.34488579 126.71702627 51.358613 131.51952384 51.37231445 136.32202148 C51.37504276 137.27807417 51.37777106 138.23412685 51.38058204 139.21915083 C51.42460423 154.6801754 51.46525603 170.14120706 51.50465261 185.60224403 C51.54518101 201.47787151 51.58935376 217.35348587 51.63687855 233.22909397 C51.66606749 243.01768704 51.69244595 252.80627928 51.71517897 262.59488951 C51.73106076 269.31593173 51.75049648 276.03695794 51.77266841 282.75798232 C51.78533906 286.63012412 51.79649893 290.50225392 51.80341911 294.37441063 C51.80980818 297.92987972 51.82072919 301.48530697 51.8350333 305.04075276 C51.84145529 306.91456381 51.84322496 308.78838909 51.84474558 310.66221052 C51.91972794 326.38662531 52.98499804 340.38435872 59.23046875 355.00390625 C60 357 60 357 60 359 C60.66 359 61.32 359 62 359 C62.30292969 359.58007812 62.60585938 360.16015625 62.91796875 360.7578125 C64.96694441 364.57836405 66.96132403 368.15457453 69.8125 371.4375 C72 374 72 374 72 376 C72.99 376.33 73.98 376.66 75 377 C75.639375 377.825 76.27875 378.65 76.9375 379.5 C82.6423258 386.67871696 91.17381337 391.52789335 99 396 C99 416.46 99 436.92 99 458 C76.20751738 455.92795613 56.44869604 446.69954458 39 432 C37.89011719 431.11054687 37.89011719 431.11054687 36.7578125 430.203125 C15.40558483 412.42226637 3.6793702 385.01922735 0 358 C-0.37270344 352.82471746 -0.39542891 347.67038529 -0.36076355 342.48486328 C-0.36207591 340.99437419 -0.3647102 339.5038858 -0.36853105 338.01340103 C-0.37516352 333.96769586 -0.36334479 329.92223397 -0.34819686 325.87655973 C-0.33513475 321.49506934 -0.33963309 317.11359059 -0.34190369 312.73208618 C-0.34347005 305.1574178 -0.3341279 297.58282747 -0.31719017 290.00817871 C-0.29271772 279.05677616 -0.2849865 268.105411 -0.2812262 257.15398407 C-0.27467459 239.3822571 -0.25474861 221.61057164 -0.22631836 203.83886719 C-0.19874427 186.584312 -0.17752712 169.32976812 -0.16479492 152.07519531 C-0.16400675 151.01005447 -0.16321858 149.94491363 -0.16240653 148.84749579 C-0.15849116 143.50352851 -0.1547001 138.15956114 -0.15097082 132.81559372 C-0.11991514 88.54369893 -0.06628393 44.27185489 0 0 Z " fill="#323A42" transform="translate(450,1012)"/>
<path d="M0 0 C16.83 0 33.66 0 51 0 C52.14874305 26.42109012 52.14874305 26.42109012 52.12698364 36.93345642 C52.12932363 38.76522307 52.12932363 38.76522307 52.13171089 40.63399512 C52.13494629 43.93742079 52.13386873 47.24080795 52.13072467 50.54423249 C52.1284215 54.13994341 52.13197402 57.73564989 52.13470459 61.33135986 C52.1391087 68.33939117 52.13821024 75.34741165 52.13529195 82.35544335 C52.13301787 88.05603521 52.132734 93.75662408 52.13381577 99.45721626 C52.133969 100.27376272 52.13412223 101.09030917 52.13428011 101.93159946 C52.13459988 103.59118147 52.1349241 105.25076349 52.1352527 106.9103455 C52.13809145 122.40280347 52.13484513 137.89525549 52.12945233 153.38771249 C52.12497985 166.64658017 52.12576701 179.90543911 52.13037109 193.16430664 C52.13573513 208.61861059 52.13782308 224.07290936 52.13475883 239.52721411 C52.13444033 241.1779741 52.13412595 242.8287341 52.13381577 244.47949409 C52.13358435 245.69735105 52.13358435 245.69735105 52.13334826 246.93981118 C52.13248904 252.62925241 52.133933 258.31869031 52.13629532 264.00813103 C52.13911363 270.94716137 52.13831222 277.88618042 52.13301457 284.82520949 C52.13040574 288.35739759 52.12932418 291.88956692 52.13266373 295.42175484 C52.15977323 333.22588786 52.15977323 333.22588786 48.9375 346.875 C48.72125977 347.79990234 48.50501953 348.72480469 48.28222656 349.67773438 C43.18613968 370.16048908 32.61907643 387.04613556 18 402 C17.37222656 402.67804688 16.74445313 403.35609375 16.09765625 404.0546875 C0.9265732 420.1181872 -25.88053884 433.2651403 -48 435 C-49.35144654 432.29710692 -49.11975165 430.19930194 -49.11352539 427.17333984 C-49.11341209 425.34166763 -49.11341209 425.34166763 -49.11329651 423.47299194 C-49.10818952 422.13564005 -49.10297352 420.79828857 -49.09765625 419.4609375 C-49.0957914 418.09616141 -49.09436781 416.73138466 -49.09336853 415.36660767 C-49.08954863 411.77284907 -49.07972283 408.17913083 -49.06866455 404.58538818 C-49.05843911 400.91891018 -49.05386848 397.25242565 -49.04882812 393.5859375 C-49.0381001 386.39060659 -49.02102999 379.19530895 -49 372 C-47.87158188 371.39565376 -47.87158188 371.39565376 -46.72036743 370.77909851 C-45.23770889 369.97905144 -45.23770889 369.97905144 -43.72509766 369.1628418 C-42.74594391 368.63619431 -41.76679016 368.10954681 -40.75796509 367.56694031 C-22.617472 357.26040309 -9.35434388 337.55426933 -3 318 C0.08933086 304.17879138 -0.68920391 289.70890318 -0.68332577 275.64248979 C-0.67959506 271.93512918 -0.6644219 268.22781199 -0.65071106 264.52047729 C-0.62854846 258.11355112 -0.61346942 251.70664061 -0.60334396 245.29968452 C-0.58869421 236.03656127 -0.56314018 226.77349269 -0.53501268 217.51040172 C-0.48965844 202.47789629 -0.45299691 187.44538294 -0.421875 172.4128418 C-0.39164271 157.81907767 -0.3572711 143.22533286 -0.31738281 128.6315918 C-0.31369049 127.27991359 -0.31369049 127.27991359 -0.30992357 125.90092874 C-0.29754806 121.37981448 -0.28509171 116.85870045 -0.27259517 112.33758652 C-0.16919778 74.89175046 -0.08047933 37.44589181 0 0 Z " fill="#303941" transform="translate(1434,1035)"/>
<path d="M0 0 C1.31411865 0.20459839 1.31411865 0.20459839 2.65478516 0.41333008 C3.81284668 0.59275146 4.9709082 0.77217285 6.1640625 0.95703125 C7.88036865 1.22350464 7.88036865 1.22350464 9.63134766 1.49536133 C12.54261107 1.93148116 15.45525078 2.31446007 18.375 2.6875 C36.50761387 6.10378957 53.66420738 18.8579007 67 31 C67.66386719 31.58136719 68.32773438 32.16273438 69.01171875 32.76171875 C80.17325299 43.090691 89.11591498 58.15521238 94.25 72.3125 C94.48428711 72.95098877 94.71857422 73.58947754 94.95996094 74.24731445 C98.9666364 85.96698388 100.45013599 97.66310746 100.36076355 109.99021912 C100.36207619 111.32722773 100.36471097 112.66423556 100.36853105 114.00123936 C100.37515822 117.62735638 100.36335247 121.25320157 100.34819686 124.87928402 C100.3351268 128.80748154 100.33963364 132.73566622 100.34190369 136.66387939 C100.34346955 143.4539033 100.33413263 150.24384009 100.31719017 157.03384209 C100.29271093 166.85078481 100.28498582 176.66768581 100.2812262 186.48465575 C100.27467564 202.41565695 100.25475255 218.34661182 100.22631836 234.27758789 C100.19874153 249.74438242 100.17752573 265.21116433 100.16479492 280.67797852 C100.16400675 281.63286324 100.16321858 282.58774797 100.16240653 283.5715686 C100.15849115 288.36239588 100.15470009 293.15322324 100.15097082 297.94405067 C100.11991842 337.62940113 100.06628974 377.3146939 100 417 C83.17 417 66.34 417 49 417 C48.99413376 413.47977676 48.98826752 409.95955353 48.98222351 406.33265686 C48.92696369 373.99784454 48.85695642 341.66309156 48.77101372 309.32834584 C48.75974653 305.08421327 48.74860792 300.84008038 48.73754883 296.59594727 C48.73534514 295.75107195 48.73314146 294.90619663 48.730871 294.03571903 C48.69556797 280.38344276 48.67066444 266.73116655 48.64965298 253.07886166 C48.62783506 239.05415934 48.59472815 225.02951588 48.55129844 211.00486368 C48.52488457 202.36172239 48.50711378 193.71865434 48.50065396 185.07547473 C48.49536848 179.13603697 48.47904663 173.1966911 48.45433434 167.25730271 C48.44042646 163.8384872 48.43275303 160.41997418 48.43499184 157.00111008 C48.44920356 125.26677652 43.72974696 99.1502374 20.98828125 75.84765625 C16.68452387 71.62700973 11.70518725 67.42860856 6.02874756 65.23994446 C3.49570342 64.08763596 1.885141 63.06435635 0 61 C-1.15524175 56.39838201 -0.93014228 51.88638315 -0.78125 47.16796875 C-0.76631722 45.80751376 -0.75493507 44.44701557 -0.74694824 43.08650208 C-0.71649174 39.51624458 -0.63799771 35.94861709 -0.54931641 32.37939453 C-0.46727702 28.73310936 -0.43089898 25.08639641 -0.390625 21.43945312 C-0.30498759 14.29189676 -0.16856785 7.14612061 0 0 Z " fill="#4E5B63" transform="translate(1385,431)"/>
<path d="M0 0 C7.26 0 14.52 0 22 0 C22.00364563 3.5135614 22.00729126 7.0271228 22.01104736 10.64715576 C22.04639474 42.93764098 22.10150919 75.22804331 22.17792095 107.51845817 C22.18793727 111.75872438 22.1977816 115.99899096 22.20751953 120.23925781 C22.2094609 121.0833462 22.21140228 121.92743459 22.21340248 122.79710141 C22.24434369 136.42795703 22.26138105 150.05879586 22.27319422 163.68967995 C22.28564676 177.69745786 22.3132401 191.70514824 22.35461307 205.71287084 C22.37963162 214.3422087 22.39312585 222.97140123 22.39142957 231.60077587 C22.3913996 237.53464976 22.40620124 243.46837666 22.43216428 249.40219316 C22.44667609 252.8153834 22.45291607 256.22802253 22.44580269 259.6412735 C22.40912168 279.96240964 24.06975956 298.45129873 31.8125 317.375 C32.25190918 318.47859863 32.69131836 319.58219727 33.14404297 320.71923828 C47.46056849 356.19932327 72.37219111 385.89701604 105.04394531 405.80566406 C106.71629717 406.82677556 108.37173559 407.87550049 110.0234375 408.9296875 C117.43987877 413.33891423 125.35452653 416.0458002 133.5 418.8125 C134.62776855 419.19809082 135.75553711 419.58368164 136.91748047 419.98095703 C138.58254639 420.52598877 138.58254639 420.52598877 140.28125 421.08203125 C141.26158203 421.40405518 142.24191406 421.7260791 143.25195312 422.05786133 C154.94337772 424.99671017 166.37832642 425.29344534 178.34333801 425.2784729 C180.17772198 425.28348378 182.01210375 425.28936188 183.84648246 425.29602563 C188.85661799 425.31174373 193.86669733 425.31525178 198.87685454 425.31667423 C204.29114398 425.32038266 209.7054031 425.33554528 215.11967468 425.34928894 C224.49014274 425.3715204 233.86059995 425.38655839 243.23108864 425.39665604 C256.7790984 425.41126586 270.32707037 425.43680915 283.8750579 425.46498732 C305.85785735 425.51041348 327.84066226 425.54704554 349.82348633 425.578125 C371.17278042 425.60832766 392.52205987 425.64268581 413.87133789 425.68261719 C415.84659285 425.68630951 415.84659285 425.68630951 417.86175195 425.69007643 C424.46819333 425.70245136 431.07463455 425.71490783 437.68107569 425.72740483 C492.45403194 425.83091009 547.22700478 425.91998706 602 426 C602 433.26 602 440.52 602 448 C597.66511824 448.86697635 594.14786272 449.12717864 589.76477242 449.13142776 C589.04326998 449.1334804 588.32176754 449.13553303 587.57840139 449.13764787 C585.15390451 449.14331495 582.72946449 449.14186095 580.30496216 449.14044189 C578.55162359 449.14302575 576.79828562 449.14603897 575.04494846 449.1494453 C570.22077279 449.15751715 565.396612 449.15930499 560.57243037 449.16004276 C555.37093503 449.16189317 550.16944742 449.1694408 544.96795654 449.17617798 C533.58690704 449.18976662 522.20586105 449.19578782 510.82480478 449.20018864 C503.71230272 449.20295209 496.59980202 449.20718983 489.48730087 449.21169281 C469.7809387 449.22388983 450.07457761 449.23418591 430.36821175 449.2375679 C429.10653567 449.23778747 427.84485958 449.23800703 426.5449509 449.23823325 C424.64795838 449.23856067 424.64795838 449.23856067 422.71264279 449.2388947 C420.15006264 449.23933816 417.58748249 449.23978473 415.02490234 449.24023438 C413.75377987 449.2404558 412.48265739 449.24067723 411.17301606 449.24090537 C390.61236831 449.24484672 370.05175616 449.26227849 349.49112214 449.2855939 C328.36300952 449.3093584 307.23491471 449.32177219 286.10678852 449.32293582 C274.25211264 449.32385011 262.39748304 449.32953953 250.54281998 449.34775543 C240.43929468 449.36322584 230.33582995 449.36823648 220.23229505 449.36001733 C215.08518804 449.35613427 209.9382027 449.35692425 204.79111099 449.37107468 C164.49800452 449.47539846 164.49800452 449.47539846 146 446 C145.12442703 445.83667411 144.24885407 445.67334823 143.34674859 445.50507307 C120.45825292 441.16699121 99.68159451 429.62323945 81 416 C79.93265625 415.24332031 78.8653125 414.48664063 77.765625 413.70703125 C60.66474571 401.28853558 46.81582432 387.09629674 34.45361328 370.00537109 C33.53795999 368.74215709 32.61538688 367.48390253 31.68310547 366.23291016 C6.68324278 332.57737012 -0.69360632 291.46799036 -0.45410156 250.55053711 C-0.45072301 247.79811167 -0.453438 245.04569955 -0.45587158 242.29327393 C-0.45794561 236.42446912 -0.44564465 230.55584538 -0.42292023 224.68708611 C-0.39008848 216.20240035 -0.3799618 207.71780006 -0.37496826 199.23305769 C-0.36626379 185.4594403 -0.33978159 171.68591892 -0.30175781 157.91235352 C-0.26491098 144.5510302 -0.23666169 131.18973317 -0.21972656 117.82836914 C-0.21867567 117.00156546 -0.21762477 116.17476178 -0.21654204 115.32290345 C-0.21132101 111.17411359 -0.20626639 107.02532355 -0.20129442 102.87653339 C-0.15998375 68.5842837 -0.08855069 34.29215893 0 0 Z " fill="#262F38" transform="translate(375,1090)"/>
<path d="M0 0 C2.01189163 0.00056525 4.02378366 0.00024533 6.03567505 -0.00088501 C11.45619757 -0.00145507 16.87663024 0.01024268 22.29713202 0.02426291 C27.97722757 0.03682849 33.65732555 0.03794534 39.33743286 0.04031372 C50.07510761 0.04651144 60.81274127 0.062899 71.55039799 0.0830127 C83.78264862 0.10542505 96.01490128 0.11637851 108.24716735 0.12640357 C133.39282906 0.14726685 158.5384515 0.1828158 183.68408203 0.22705078 C183.68408203 7.48705078 183.68408203 14.74705078 183.68408203 22.22705078 C181.26997513 22.23735825 178.85586823 22.24766571 176.36860657 22.25828552 C153.6067507 22.35592021 130.84492263 22.4587686 108.08311176 22.56639004 C96.3813454 22.6215931 84.67957599 22.67505335 72.9777832 22.72436523 C62.77472361 22.76736586 52.5716853 22.8136829 42.36865872 22.86392933 C36.96970537 22.89040293 31.57075588 22.91525178 26.17177773 22.9361248 C21.08208086 22.95585462 15.99242401 22.98004464 10.90276337 23.00754166 C9.04250256 23.01682631 7.18223304 23.0245315 5.32195854 23.03046989 C-41.47071517 23.18434444 -76.75343225 38.34499945 -110.19091797 70.85205078 C-139.20376069 100.78679691 -155.00508653 140.69938309 -154.8348999 182.17080688 C-154.84078744 184.33536813 -154.84842084 186.49992519 -154.85763097 188.66447484 C-154.8777567 194.56410107 -154.87337264 200.46348498 -154.86472344 206.36312962 C-154.8597557 212.74326806 -154.87789186 219.1233474 -154.8931427 225.50346375 C-154.91640246 236.54141306 -154.92534509 247.57929501 -154.92403412 258.61726761 C-154.92272097 270.18542277 -154.92970444 281.75352471 -154.94760895 293.32166672 C-154.94927603 294.40324076 -154.94927603 294.40324076 -154.95097679 295.50666477 C-154.9566644 299.16896711 -154.96249869 302.83126919 -154.96838942 306.49357121 C-155.00977848 332.38910088 -155.03280629 358.28461724 -155.04492188 384.18017578 C-155.05672946 409.32700101 -155.07692502 434.47379682 -155.10839844 459.62060547 C-155.10936639 460.39664113 -155.11033434 461.17267679 -155.11133162 461.97222868 C-155.12106199 469.76596708 -155.13096205 477.55970526 -155.14098639 485.35344329 C-155.16140067 501.22817122 -155.18068286 517.10290046 -155.19927979 532.97763062 C-155.20056428 534.07231338 -155.20056428 534.07231338 -155.20187472 535.18911095 C-155.25886499 583.86840866 -155.2891647 632.54772811 -155.31591797 681.22705078 C-162.57591797 681.22705078 -169.83591797 681.22705078 -177.31591797 681.22705078 C-177.36712222 631.68701847 -177.41505274 582.14698502 -177.44294739 532.60693359 C-177.44336156 531.87325951 -177.44377573 531.13958543 -177.44420245 530.38367879 C-177.45318201 514.43743651 -177.46149244 498.49119395 -177.46911396 482.54495096 C-177.47285584 474.72446594 -177.47674552 466.903981 -177.48071289 459.08349609 C-177.48110517 458.30528035 -177.48149744 457.52706461 -177.48190161 456.72526658 C-177.49467655 431.51914771 -177.51720368 406.31304907 -177.54480963 381.10694245 C-177.5731361 355.19577838 -177.59158095 329.2846255 -177.59766294 303.37344622 C-177.59852735 299.71032886 -177.59950426 296.04721155 -177.6005497 292.38409424 C-177.60075197 291.66316846 -177.60095424 290.94224267 -177.60116263 290.19947065 C-177.60470229 278.61317414 -177.6186016 267.02691231 -177.63641407 255.44062991 C-177.65411645 243.78122425 -177.66056958 232.1218613 -177.6564221 220.4624418 C-177.65450251 214.14968917 -177.65742511 207.83703799 -177.67353439 201.52430344 C-177.68819267 195.73775681 -177.6888319 189.95137933 -177.67861465 184.16482472 C-177.67735289 182.07841316 -177.6811079 179.99199081 -177.69056752 177.90560031 C-177.75591761 162.59397078 -176.14422967 148.62099203 -171.87841797 133.85205078 C-171.55429932 132.71340576 -171.55429932 132.71340576 -171.22363281 131.55175781 C-169.59413994 125.94173254 -167.67054058 120.57552345 -165.31591797 115.22705078 C-164.84798828 114.07591797 -164.38005859 112.92478516 -163.89794922 111.73876953 C-155.96275212 92.47140044 -145.04215396 73.40393518 -129.93798828 58.85742188 C-128.27551649 57.18644255 -126.7967238 55.43454477 -125.31591797 53.60205078 C-105.09291961 30.25738153 -74.5546879 13.01801562 -45.06591797 4.85205078 C-43.77282715 4.49385254 -43.77282715 4.49385254 -42.45361328 4.12841797 C-28.28471787 0.4379895 -14.53633061 -0.05769 0 0 Z " fill="#4A5862" transform="translate(552.31591796875,362.77294921875)"/>
<path d="M0 0 C1.07251785 -0.00262956 1.07251785 -0.00262956 2.16670272 -0.00531223 C4.57498686 -0.00998326 6.98321091 -0.0075039 9.39149761 -0.00507832 C11.13062724 -0.00694573 12.86975645 -0.00924616 14.60888499 -0.01194364 C19.39780222 -0.01807662 24.18670203 -0.01792628 28.9756223 -0.01674926 C34.13660937 -0.01654563 39.29759079 -0.02206041 44.45857525 -0.02680683 C54.57371771 -0.03512221 64.68885435 -0.03786207 74.80399994 -0.03841921 C83.02419336 -0.03889396 91.24438486 -0.04094666 99.46457767 -0.04411983 C122.7579234 -0.05292891 146.05126452 -0.05753883 169.34461192 -0.05678936 C171.22922911 -0.05672943 171.22922911 -0.05672943 173.15191936 -0.05666828 C174.40986062 -0.0566274 175.66780187 -0.05658652 176.96386256 -0.0565444 C197.35431168 -0.05613788 217.74474234 -0.06570824 238.13518611 -0.07980665 C259.05978749 -0.0941605 279.98437985 -0.10107738 300.90898627 -0.10021287 C312.661433 -0.09988055 324.41386038 -0.10264284 336.16630268 -0.11339092 C346.17221922 -0.1224829 356.17810764 -0.12468192 366.18402652 -0.1178815 C371.29063814 -0.11460967 376.39719577 -0.11458346 381.5038023 -0.12323475 C386.17759361 -0.13107145 390.85128785 -0.12969737 395.52507671 -0.12095062 C397.21686097 -0.11940937 398.90865236 -0.12125519 400.6004282 -0.12681069 C402.89911637 -0.13385987 405.19746299 -0.12858582 407.49613953 -0.12025452 C409.41180378 -0.12058057 409.41180378 -0.12058057 411.36616832 -0.12091321 C417.65794747 0.31880869 422.38724641 1.69877531 426.93683147 6.12863445 C432.46794084 12.97221044 433.6105368 18.33437381 432.93683147 27.12863445 C431.7768514 32.20354727 429.69414202 36.47287284 425.93683147 40.12863445 C419.57414925 44.01183845 414.34554724 45.25238372 406.89207363 45.26285553 C406.1790497 45.26520776 405.46602578 45.26755999 404.73139507 45.2699835 C402.3298676 45.27666768 399.92839432 45.27621545 397.52685833 45.27580547 C395.79256586 45.27910445 394.05827415 45.28283009 392.32398343 45.28694695 C387.548402 45.29697102 382.77283315 45.30068439 377.99724269 45.30333626 C372.85054887 45.30723803 367.70386501 45.31681637 362.55717754 45.32554913 C350.12414411 45.34531571 337.69110985 45.35537937 325.25806463 45.36427692 C319.40544448 45.36865894 313.55282524 45.37402592 307.7002058 45.37926579 C288.24948979 45.39627721 268.79877434 45.41077239 249.34805202 45.41801453 C244.30000845 45.41992446 239.25196488 45.42184479 234.20392132 45.42380047 C232.94923299 45.42428421 231.69454466 45.42476795 230.40183547 45.42526635 C210.06700719 45.43357046 189.73223766 45.45891421 169.39743504 45.49138115 C148.52819957 45.52443025 127.658994 45.54246129 106.78973222 45.54565877 C95.06908255 45.5478257 83.3485186 45.55660139 71.6278944 45.58211994 C61.64833691 45.60379746 51.66888596 45.61189183 41.6893076 45.60215316 C36.59668533 45.59760011 31.504283 45.59955315 26.41169071 45.6189146 C21.7494737 45.63648696 17.08763806 45.63559684 12.42541733 45.62001731 C10.73899464 45.61763223 9.05254595 45.62201127 7.3661631 45.63384596 C-10.24040428 45.74975002 -10.24040428 45.74975002 -17.30535603 38.98019695 C-22.41892316 32.00715086 -25.40534928 25.93051454 -24.06316853 17.12863445 C-21.70083844 9.84386771 -17.83902987 4.77924762 -11.06316853 1.12863445 C-7.39056658 -0.09047869 -3.84680013 0.00212262 0 0 Z " fill="#4DFCD1" transform="translate(894.0631685256958,542.8713655471802)"/>
<path d="M0 0 C7.26 0 14.52 0 22 0 C22.06984319 19.14305236 22.12318475 38.28606801 22.15543652 57.42922211 C22.17081843 66.32037225 22.191739 75.21144113 22.22631836 84.10253906 C22.2564896 91.86400429 22.27563777 99.62541059 22.28226548 107.38693285 C22.28613151 111.48572633 22.29502896 115.58435143 22.31719017 119.68309021 C22.445115 144.33484526 21.83504184 168.37887789 14 192 C13.75797852 192.75023437 13.51595703 193.50046875 13.26660156 194.2734375 C-1.76330093 240.23360266 -35.71317576 280.97147379 -79 303 C-104.61548059 315.66494637 -131.12906534 323.18564053 -159.80018616 323.12025452 C-161.18976198 323.12069117 -162.57933772 323.12156781 -163.96891302 323.12284368 C-167.76811674 323.12507011 -171.56729205 323.12109282 -175.36649215 323.11606562 C-179.47066676 323.11173462 -183.57483986 323.11320942 -187.67901611 323.1139679 C-194.78341614 323.11449145 -201.88780696 323.11136223 -208.99220467 323.10573006 C-219.26388631 323.09759227 -229.53556353 323.0949975 -239.80724805 323.09374207 C-256.47363338 323.09155513 -273.14001381 323.08490475 -289.80639648 323.07543945 C-305.99324519 323.06625607 -322.18009257 323.05917977 -338.36694336 323.05493164 C-339.36522237 323.05466892 -340.36350137 323.05440619 -341.39203126 323.05413551 C-346.40025941 323.05283044 -351.40848757 323.05156674 -356.41671574 323.05032361 C-397.9444806 323.03996215 -439.47223994 323.02227907 -481 323 C-481 315.08 -481 307.16 -481 299 C-479.30278777 299.00092179 -477.60557554 299.00184359 -475.85693264 299.00279331 C-435.53177848 299.02447016 -395.20662499 299.04095002 -354.88146621 299.05106533 C-349.91373462 299.05231598 -344.94600305 299.0536103 -339.97827148 299.05493164 C-338.98932204 299.05519395 -338.00037259 299.05545626 -336.98145498 299.05572652 C-320.98693356 299.060073 -304.99241576 299.06795493 -288.99789649 299.0771528 C-272.57535406 299.08651775 -256.15281352 299.09206163 -239.73026854 299.09408849 C-229.60386146 299.09545782 -219.47746458 299.0997764 -209.35106064 299.10791647 C-202.39875596 299.11321899 -195.44645653 299.11479634 -188.49414998 299.11350138 C-184.48833263 299.11286347 -180.48253306 299.11381321 -176.4767189 299.11920547 C-172.79913426 299.12411939 -169.12157913 299.12428697 -165.44399304 299.12089889 C-163.50455812 299.12028513 -161.56512347 299.12455504 -159.62569374 299.12908131 C-142.31267164 299.10461051 -142.31267164 299.10461051 -125.3125 296.1875 C-124.60101807 296.00936768 -123.88953613 295.83123535 -123.15649414 295.64770508 C-105.08002831 291.02102702 -89.07249187 283.97310535 -74 273 C-73.43152344 272.5884668 -72.86304688 272.17693359 -72.27734375 271.75292969 C-64.00332722 265.71059395 -56.41876254 259.05606748 -49 252 C-48.36707031 251.41992188 -47.73414063 250.83984375 -47.08203125 250.2421875 C-26.78055461 231.04981766 -12.50687373 204.20265343 -5.3125 177.5 C-5.10987549 176.75322998 -4.90725098 176.00645996 -4.69848633 175.23706055 C-1.62357789 163.31842296 -0.69852231 151.56005395 -0.68115234 139.2956543 C-0.67182976 137.76665735 -0.66165772 136.23766538 -0.65071106 134.7086792 C-0.62365926 130.6000864 -0.60833627 126.49152739 -0.59528303 122.38286948 C-0.57954255 118.07338873 -0.55278778 113.76397591 -0.5272522 109.45454407 C-0.48065615 101.31287191 -0.44381989 93.17118669 -0.41057932 85.02945024 C-0.37222159 75.75237856 -0.32284767 66.47537544 -0.27259517 57.19836175 C-0.16956086 38.13229071 -0.08059942 19.06617819 0 0 Z " fill="#242D36" transform="translate(1538,1216)"/>
<path d="M0 0 C176.55 0 353.1 0 535 0 C535 7.26 535 14.52 535 22 C358.45 22 181.9 22 0 22 C0 14.74 0 7.48 0 0 Z " fill="#5A6B75" transform="translate(816,363)"/>
<path d="M0 0 C0.69738281 0.49113281 1.39476562 0.98226562 2.11328125 1.48828125 C10.26867039 7.8700712 17.30622931 18.6713199 19 29 C20.28840171 44.27676317 16.7023809 57.56486554 7.3125 69.75 C-0.36927201 78.11370478 -12.88150142 84.40477354 -24.25 85.23828125 C-38.7698436 85.52565315 -49.97013326 81.69515473 -60.6875 71.75 C-70.48489904 61.42976993 -74.41949525 48.52119973 -74.27734375 34.54296875 C-73.32825031 22.41863426 -68.08993381 11.62974405 -59.375 3.25 C-42.03844919 -11.50173374 -18.71726719 -13.5627702 0 0 Z " fill="#53FBC9" transform="translate(628,538)"/>
<path d="M0 0 C0.66 0 1.32 0 2 0 C12.32977189 24.83109579 22.29953287 49.79332227 32.09692383 74.83911133 C33.02158723 77.20266015 33.94630954 79.56618594 34.87109375 81.9296875 C35.31695328 83.06929428 35.76281281 84.20890106 36.22218323 85.38304138 C38.79760361 91.95727236 41.39592853 98.52143542 44.03515625 105.0703125 C44.32601105 105.79248459 44.61686584 106.51465668 44.91653442 107.25871277 C46.19247351 110.42278253 47.47451093 113.58411081 48.76464844 116.74243164 C49.18907227 117.79035889 49.61349609 118.83828613 50.05078125 119.91796875 C50.40825439 120.79219482 50.76572754 121.6664209 51.1340332 122.56713867 C52 125 52 125 53 130 C19.67 130 -13.66 130 -48 130 C-47.22938326 124.60568283 -46.21631529 120.32690428 -44.2890625 115.359375 C-44.00935104 114.62038467 -43.72963959 113.88139435 -43.44145203 113.12001038 C-42.50917102 110.66080075 -41.56705742 108.20547936 -40.625 105.75 C-39.61031668 103.08263629 -38.5981492 100.41432679 -37.5861969 97.7459259 C-36.86615937 95.84750095 -36.14530434 93.94938589 -35.4236908 92.05155945 C-32.6422652 84.72733947 -29.91141726 77.3852639 -27.19921875 70.03515625 C-19.15518154 48.25349003 -11.09783315 26.5250485 -1.91357422 5.19335938 C-1.20421448 3.49028938 -0.58340712 1.75022135 0 0 Z " fill="#0A131C" transform="translate(764,874)"/>
<path d="M0 0 C10.82179141 8.13668527 19.3622601 18.87749513 21.41235352 32.59008789 C22.62878794 47.70683625 19.54720719 60.08811129 9.8125 71.875 C5.1445848 76.58240687 0.11101553 79.60944752 -5.9375 82.25 C-6.85144531 82.6625 -7.76539063 83.075 -8.70703125 83.5 C-19.65306681 87.81252837 -32.6262316 88.21395681 -43.515625 83.51171875 C-56.65975556 76.66405073 -65.17747554 67.37661727 -69.8125 53.125 C-73.18400419 39.03332381 -71.13937903 26.5431389 -64.125 14 C-57.48829192 3.54015086 -47.97731372 -3.43448613 -35.83984375 -6.27734375 C-23.75830913 -8.2448615 -10.50969924 -6.62056785 0 0 Z " fill="#21AC99" transform="translate(624.9375,1280.75)"/>
<path d="M0 0 C0.69974442 -0.0049649 1.39948883 -0.00992981 2.12043762 -0.01504517 C4.43023675 -0.02962222 6.73996716 -0.03646203 9.04980469 -0.04199219 C10.66160075 -0.04774818 12.27339682 -0.05350586 13.88519287 -0.05926514 C17.26444822 -0.06976306 20.64367987 -0.07561334 24.02294922 -0.07910156 C28.33804584 -0.0845777 32.65282557 -0.10859183 36.96782303 -0.13707352 C40.29826755 -0.15576513 43.62863681 -0.160909 46.95912933 -0.16243744 C48.54903644 -0.1654508 50.13894265 -0.17343452 51.72879791 -0.18662262 C69.93298994 -0.32682652 69.93298994 -0.32682652 76.72167969 5.53613281 C81.96392264 11.65208292 84.36375242 15.27290075 84.24511719 23.39941406 C83.52799585 30.64233958 80.73281108 36.27257089 75.14355469 40.90722656 C66.62179149 45.82716539 58.29170246 45.6351193 48.72167969 45.62988281 C47.13801813 45.63699488 45.55435912 45.64469539 43.97070312 45.6529541 C40.66236187 45.66635235 37.35425911 45.66798812 34.04589844 45.66210938 C29.82252116 45.65620853 25.60029156 45.68684124 21.37713623 45.72722626 C18.11012693 45.75316678 14.84339202 45.75597515 11.57629395 45.75233459 C10.01986805 45.75401899 8.46342855 45.76359564 6.90710449 45.78147888 C-3.06460011 45.88349103 -9.55849348 45.14522213 -17.05175781 38.31738281 C-17.49777344 37.77082031 -17.94378906 37.22425781 -18.40332031 36.66113281 C-18.86480469 36.11457031 -19.32628906 35.56800781 -19.80175781 35.00488281 C-23.72180477 29.11232814 -23.84754524 23.02214156 -23.02832031 16.16113281 C-20.82557252 9.04153728 -17.47757269 4.79616597 -11.02832031 1.16113281 C-7.39301774 -0.08987314 -3.8191481 0.02063352 0 0 Z " fill="#52FBCE" transform="translate(729.0283203125,542.8388671875)"/>
<path d="M0 0 C6.93 0 13.86 0 21 0 C21 66.33 21 132.66 21 201 C14.07 201 7.14 201 0 201 C0 134.67 0 68.34 0 0 Z " fill="#4B5962" transform="translate(1539,556)"/>
<path d="M0 0 C45.88883287 13.01876345 83.16546781 48.87423017 107.38671875 88.828125 C109 92 109 92 109 96 C109.66 96 110.32 96 111 96 C111.25394531 96.66386719 111.50789063 97.32773437 111.76953125 98.01171875 C112.11371094 98.89472656 112.45789062 99.77773438 112.8125 100.6875 C113.14894531 101.55761719 113.48539063 102.42773438 113.83203125 103.32421875 C114.93181438 106.016145 114.93181438 106.016145 116.48046875 108.39453125 C122.45940092 118.64632497 126 133.29128309 126 145 C118.74 145 111.48 145 104 145 C103.401875 142.56625 102.80375 140.1325 102.1875 137.625 C91.72996608 95.71438919 63.05786743 58.29250137 26 36 C20.57897349 32.96315716 15.06315015 30.11769841 9.51953125 27.3125 C8.72844971 26.89846924 7.93736816 26.48443848 7.12231445 26.05786133 C4.88143531 24.88935978 4.88143531 24.88935978 1.90625 23.88671875 C-0.55333137 21.45233801 -0.35019666 20.30377172 -0.48828125 16.89453125 C-0.4550367 14.86661342 -0.39539629 12.83899553 -0.3125 10.8125 C-0.28994141 9.77673828 -0.26738281 8.74097656 -0.24414062 7.67382812 C-0.18516846 5.11443596 -0.10292567 2.55794049 0 0 Z " fill="#51616A" transform="translate(1432,367)"/>
<path d="M0 0 C6.93 0 13.86 0 21 0 C21 36.96 21 73.92 21 112 C14.07 112 7.14 112 0 112 C0 75.04 0 38.08 0 0 Z " fill="#363F48" transform="translate(1539,1059)"/>
<path d="M0 0 C6.48559326 3.47863638 10.59466921 8.10966964 13.203125 15.0078125 C14.55283607 21.8934479 13.0183349 28.16752051 9.203125 34.0078125 C7.07650734 36.36614395 4.81365609 38.20983082 2.203125 40.0078125 C1.31625 40.6265625 0.429375 41.2453125 -0.484375 41.8828125 C-6.61121119 43.96362479 -12.6791584 44.45167306 -18.65625 41.68359375 C-23.96972859 38.18581568 -27.18980925 34.78869743 -29.796875 29.0078125 C-30.126875 28.3478125 -30.456875 27.6878125 -30.796875 27.0078125 C-31.53628452 20.14186696 -31.5330252 14.44915368 -27.359375 8.7578125 C-19.80034365 0.29169739 -11.44400397 -4.05974442 0 0 Z " fill="#1CAE9D" transform="translate(1282.796875,1295.9921875)"/>
<path d="M0 0 C10.41866797 9.92254093 10.41866797 9.92254093 10.86328125 15.4765625 C11.14514532 29.33240681 11.14514532 29.33240681 6.625 34.5 C0.46473135 39.64297658 -4.99517404 41.9581994 -13.00390625 41.83984375 C-19.41088349 40.92154553 -24.29968531 36.22118569 -28.1875 31.30859375 C-31.82321483 25.77130439 -32.20791824 18.92842026 -31.375 12.5 C-28.80808884 7.04531378 -24.1674739 3.07221361 -19.375 -0.5 C-13.24242667 -2.54419111 -5.91132961 -2.6272576 0 0 Z " fill="#4BFCD3" transform="translate(958.375,727.5)"/>
<path d="M0 0 C4.98105682 3.51253808 9.20289534 7.82722724 10.75 13.875 C11.82276963 21.15243722 9.93456459 26.87607533 5.75 32.875 C3.59833218 34.97275359 1.3954182 36.46616101 -1.25 37.875 C-2.03375 38.308125 -2.8175 38.74125 -3.625 39.1875 C-8.81876153 40.54777088 -12.99590023 41.02188068 -17.9140625 38.51953125 C-23.90888534 34.51414077 -27.93839181 30.80982458 -30.25 23.875 C-30.82745969 17.93000517 -31.03232241 12.50930608 -27.58203125 7.4375 C-20.59270248 -0.76112612 -10.17905898 -5.97299498 0 0 Z " fill="#4BEDC5" transform="translate(1257.25,913.125)"/>
<path d="M0 0 C4.9299259 2.81999877 8.18110201 7.48720401 10.6875 12.5 C11.43064908 19.73656643 10.89229189 25.46763516 6.6875 31.5 C2.59957154 36.47180488 -1.64115454 38.95121892 -7.92578125 39.890625 C-14.20081785 40.27250828 -17.90863966 39.29360606 -22.66015625 35.14453125 C-27.82694301 30.00217374 -30.30897968 25.46829413 -30.6875 18.125 C-30.53869053 13.20602015 -29.29504951 9.43266916 -26.3125 5.5 C-18.89751276 -1.36296606 -9.71214593 -4.25609484 0 0 Z " fill="#4DF7C9" transform="translate(574.3125,736.5)"/>
<path d="M0 0 C3.95478251 2.91900614 7.41112181 6.50974362 9.625 10.9375 C10.96368255 24.23305172 10.96368255 24.23305172 8.2734375 29.66796875 C4.37848401 34.24067846 0.13605607 37.5165995 -5.94921875 38.24609375 C-13.69921638 38.59500224 -17.74856942 36.97586075 -23.6875 32 C-27.99844455 26.73106777 -27.90760483 20.95272838 -27.83203125 14.3984375 C-27.15803387 9.29449151 -25.00159277 6.4405592 -21.375 2.9375 C-20.87613281 2.39480469 -20.37726562 1.85210938 -19.86328125 1.29296875 C-15.10219822 -3.04324072 -5.65734979 -1.78101753 0 0 Z " fill="#37424D" transform="translate(762.375,1181.0625)"/>
<path d="M0 0 C4.7102718 2.62833166 8.40037801 6.61325601 10.8125 11.4375 C11.79569328 25.12657563 11.79569328 25.12657563 7.8125 30.4375 C2.8067871 35.22557321 -1.54289335 37.70384108 -8.5 37.875 C-14.21842194 37.72876848 -18.11127695 36.5321675 -22.1875 32.4375 C-26.36451279 26.77306314 -28.04673168 21.06470584 -27.66015625 14.046875 C-26.69219394 8.70308309 -24.40377733 5.19508937 -20.16796875 1.8359375 C-13.51713815 -2.33393527 -7.25410634 -3.17194764 0 0 Z " fill="#303A44" transform="translate(1363.1875,1288.5625)"/>
<path d="M0 0 C4.77575663 2.35632045 7.88180502 6.4891839 9.7109375 11.375 C10.63744077 17.59580767 10.38917574 23.10285852 6.7109375 28.375 C2.9639592 32.8433793 -0.38275085 35.97565587 -6.390625 36.58984375 C-11.45398595 36.80152272 -15.01149485 36.32176882 -19.2890625 33.375 C-24.64895957 28.2850258 -27.22962931 23.44125602 -27.7265625 16 C-27.56158989 9.47808278 -24.25801658 5.39444008 -19.8515625 0.875 C-13.64160245 -1.73972002 -6.50904305 -1.77721312 0 0 Z " fill="#3F4E59" transform="translate(1531.2890625,902.625)"/>
<path d="M0 0 C4.58798129 2.25132701 6.98168365 4.97557821 10 9 C11.84961854 14.54885563 11.79897602 19.9415324 9.375 25.3125 C6.73643834 30.02622937 3.0753212 32.30822627 -2 34 C-6.77254372 34.67848764 -11.14145696 35.06074402 -15.4296875 32.61328125 C-20.08375475 28.68374828 -22.6208254 25.27589217 -23.3359375 19.09765625 C-23.41541523 12.92223694 -23.46719932 8.70231508 -19 4 C-13.68730897 -1.17646819 -7.01490105 -0.97453569 0 0 Z " fill="#424E59" transform="translate(1385,966)"/>
<path d="M0 0 C6.93 0 13.86 0 21 0 C21 12.87 21 25.74 21 39 C14.07 39 7.14 39 0 39 C0 26.13 0 13.26 0 0 Z " fill="#424E56" transform="translate(1539,806)"/>
<path d="M0 0 C3.88924158 1.8057193 5.51165031 3.26747547 7.875 6.8125 C9.19527938 10.55329157 9.49277138 13.05782897 9 17 C6.2055618 22.27838327 2.73406618 26.08864461 -3 28 C-7.32198264 28.23574451 -10.2978228 28.28511138 -14 26 C-17.82090367 21.98805114 -19.37242809 17.80965329 -19.625 12.3125 C-19.44265108 8.32292676 -19.17581552 7.23283676 -16.6875 3.9375 C-10.85793624 -0.26520876 -7.11582288 -0.81440033 0 0 Z " fill="#41525E" transform="translate(591,873)"/>
<path d="M0 0 C5.10673374 0.0219802 7.5005689 1.42570124 11.09765625 4.9296875 C13.93102359 8.27427403 13.66495279 11.16069631 13.375 15.4375 C11.46834197 19.99229418 8.76273175 22.24363412 4.375 24.4375 C1.23990213 25.0346615 -1.49823614 25.10669669 -4.625 24.4375 C-8.31248567 21.69150004 -10.5786592 18.93676545 -11.625 14.4375 C-11.78816531 9.72490182 -11.23242538 7.15122482 -8.125 3.5 C-7.3 2.819375 -6.475 2.13875 -5.625 1.4375 C-4.00106095 -0.18643905 -2.24052751 0.11168793 0 0 Z " fill="#40505B" transform="translate(557.625,944.5625)"/>
<path d="M0 0 C3.49620563 1.4119292 6.89650713 2.78940562 9 6 C10.01238475 10.41110497 10.35274408 12.87562823 9 17.1875 C5.82028712 21.65897124 2.39580227 24.45096198 -3 25.6875 C-7.40031307 24.67909492 -10.00923935 22.30557756 -13 19 C-14.94873035 15.83331318 -15.0086185 14.24131786 -14.875 10.5 C-12.87497397 2.49989587 -8.03132621 -0.68062086 0 0 Z " fill="#566871" transform="translate(1386,549)"/>
<path d="M0 0 C2 1.3125 2 1.3125 4 3 C4 3.99 4 4.98 4 6 C5.6254308 5.85904936 7.25034051 5.71207913 8.875 5.5625 C9.77992188 5.48128906 10.68484375 5.40007812 11.6171875 5.31640625 C14.01110861 5.13010715 14.01110861 5.13010715 16 4 C17.33601164 4.32243105 18.66886863 4.65797929 20 5 C21.8420248 5.09065889 23.68699619 5.12788791 25.53125 5.12939453 C26.63919922 5.13254669 27.74714844 5.13569885 28.88867188 5.13894653 C30.08041016 5.1369223 31.27214844 5.13489807 32.5 5.1328125 C33.72783203 5.13376923 34.95566406 5.13472595 36.22070312 5.13571167 C38.81640677 5.1363921 41.41211212 5.13454734 44.0078125 5.13037109 C47.98441382 5.12502097 51.9609022 5.13032076 55.9375 5.13671875 C58.45833358 5.13605794 60.9791671 5.13477673 63.5 5.1328125 C64.69173828 5.13483673 65.88347656 5.13686096 67.11132812 5.13894653 C68.21927734 5.13579437 69.32722656 5.13264221 70.46875 5.12939453 C71.44263672 5.12859894 72.41652344 5.12780334 73.41992188 5.12698364 C75.96468809 5.08835612 75.96468809 5.08835612 78.22070312 4.42941284 C80 4 80 4 82 5 C84.02420574 4.88110392 86.04507598 4.703827 88.0625 4.5 C93.3855882 4.06985146 98.34757377 4.07535378 103.6875 4.5 C111.22148017 5.08366778 118.64210597 4.89180361 126.1875 4.5625 C163.76612244 2.92978813 163.76612244 2.92978813 174 5 C174.99 5.99 174.99 5.99 176 7 C117.26 7 58.52 7 -2 7 C-1.34 4.69 -0.68 2.38 0 0 Z " fill="#36D0B6" transform="translate(680,1095)"/>
<path d="M0 0 C0.99 0 1.98 0 3 0 C3.495 2.475 3.495 2.475 4 5 C-29.33 5 -62.66 5 -97 5 C-97 3.68 -97 2.36 -97 1 C-64.99 1.33 -32.98 1.66 0 2 C0 1.34 0 0.68 0 0 Z " fill="#080D10" transform="translate(813,999)"/>
<path d="M0 0 C2.05459182 0.03526166 4.10926968 0.06582451 6.16400146 0.0916748 C9.05043018 0.13080667 11.93569871 0.19011407 14.82162476 0.25604248 C15.68546783 0.26561981 16.54931091 0.27519714 17.43933105 0.2850647 C23.42642272 0.4584967 23.42642272 0.4584967 26.77084351 3.80291748 C-11.83915649 3.80291748 -50.44915649 3.80291748 -90.22915649 3.80291748 C-90.22915649 3.47291748 -90.22915649 3.14291748 -90.22915649 2.80291748 C-89.01014648 2.76533325 -89.01014648 2.76533325 -87.76651001 2.72698975 C-84.10804897 2.6114263 -80.44987121 2.48852164 -76.79165649 2.36541748 C-75.51226196 2.32610107 -74.23286743 2.28678467 -72.91470337 2.24627686 C-71.09229126 2.18343506 -71.09229126 2.18343506 -69.23306274 2.11932373 C-68.10714722 2.08266602 -66.98123169 2.0460083 -65.82119751 2.00823975 C-63.30062208 2.09073703 -63.30062208 2.09073703 -62.22915649 0.80291748 C-59.81130829 0.62788189 -57.42041369 0.51796904 -54.99868774 0.45135498 C-54.23635834 0.42765839 -53.47402893 0.40396179 -52.68859863 0.37954712 C-50.13976392 0.30457483 -47.59084149 0.2398002 -45.04165649 0.17791748 C-43.7345018 0.14522766 -43.7345018 0.14522766 -42.40093994 0.11187744 C-28.26462109 -0.22410123 -14.13809442 -0.24534474 0 0 Z " fill="#5EFEE1" transform="translate(1110.2291564941406,584.1970825195313)"/>
<path d="M0 0 C0.66 0 1.32 0 2 0 C2 0.66 2 1.32 2 2 C2.99 2 3.98 2 5 2 C5.33 3.98 5.66 5.96 6 8 C6.66 8 7.32 8 8 8 C8.2475 8.5775 8.495 9.155 8.75 9.75 C9.92381027 12.13114342 9.92381027 12.13114342 12.125 14 C14 16 14 16 14 20 C14.61875 20.103125 15.2375 20.20625 15.875 20.3125 C18 21 18 21 20 24 C20.804375 24.928125 21.60875 25.85625 22.4375 26.8125 C24.23684488 28.91866958 25.1741553 30.39806927 26.3125 33 C28.326973 36.58128534 30.54654545 38.03258181 33.859375 40.3515625 C37.39635094 43.07529215 40.39102114 46.38004183 43 50 C43 50.66 43 51.32 43 52 C43.5775 52.268125 44.155 52.53625 44.75 52.8125 C47.05550043 54.02929189 49.02056192 55.30333879 51 57 C51 57.66 51 58.32 51 59 C51.99 59.495 51.99 59.495 53 60 C54.33333333 61.66666667 55.66666667 63.33333333 57 65 C57.99 65.495 57.99 65.495 59 66 C58.67 66.66 58.34 67.32 58 68 C44.27508407 58.05196511 32.38059394 45.33173695 22 32 C20.52167823 30.24928621 19.0424858 28.49930731 17.5625 26.75 C13.99059548 22.38712893 10.75680142 17.86998806 7.625 13.1875 C7.20806885 12.56520508 6.7911377 11.94291016 6.36157227 11.30175781 C3.95944968 7.64837667 1.87913261 3.95830192 0 0 Z " fill="#59D4BF" transform="translate(1040,1078)"/>
<path d="M0 0 C0 39.27 0 78.54 0 119 C-7.33333333 122.66666667 -14.66666667 126.33333333 -22 130 C-22.99 129.67 -23.98 129.34 -25 129 C-18.375 125 -18.375 125 -15 125 C-14.505 124.01 -14.505 124.01 -14 123 C-12.68 123 -11.36 123 -10 123 C-9.814375 122.360625 -9.62875 121.72125 -9.4375 121.0625 C-8.963125 120.381875 -8.48875 119.70125 -8 119 C-5.67833603 118.5932667 -3.34318961 118.25498627 -1 118 C-1.07105453 117.18289047 -1.14210907 116.36578094 -1.21531677 115.52391052 C-2.13129616 103.71160446 -2.12784469 91.93997754 -2.09765625 80.09765625 C-2.09578699 77.92191094 -2.09436549 75.7461652 -2.09336853 73.57041931 C-2.08958334 67.89391887 -2.07978805 62.21744476 -2.06866455 56.54095459 C-2.05836362 50.72847855 -2.05385246 44.91599819 -2.04882812 39.10351562 C-2.03816148 27.73566563 -2.02113417 16.36783502 -2 5 C-4.01149955 6.00155915 -6.0154983 7.00823347 -8 8.0625 C-9.98934744 8.99500661 -11.85678743 9.54074016 -14 10 C-4.57142857 0 -4.57142857 0 0 0 Z " fill="#2FBCA9" transform="translate(1383,1055)"/>
<path d="M0 0 C2 3 2 3 2 7 C-32.98 7 -67.96 7 -104 7 C-104.33 5.35 -104.66 3.7 -105 2 C-104.67 2.66 -104.34 3.32 -104 4 C-101.21793645 4.97682177 -98.84324465 5.07162857 -95.92578125 4.84375 C-95.17619141 4.79089844 -94.42660156 4.73804688 -93.65429688 4.68359375 C-92.88150391 4.62300781 -92.10871094 4.56242187 -91.3125 4.5 C-88.53816409 4.28571276 -85.78148135 4.11823513 -83 4 C-82.67 4.33 -82.34 4.66 -82 5 C-79.55196588 5.12156404 -77.13161612 5.17858482 -74.68212891 5.19287109 C-73.53334007 5.20513733 -73.53334007 5.20513733 -72.36134338 5.21765137 C-69.81642451 5.24254871 -67.27156151 5.25903143 -64.7265625 5.2734375 C-63.42619616 5.28142302 -63.42619616 5.28142302 -62.09955978 5.28956985 C-57.51202019 5.31631903 -52.92450799 5.33568911 -48.33691406 5.35009766 C-43.5894728 5.36675927 -38.84272392 5.4115441 -34.09554482 5.4624691 C-30.45304533 5.4960639 -26.8107118 5.50766646 -23.16807175 5.51332474 C-21.41769488 5.52005775 -19.66732969 5.53533276 -17.91710281 5.55921555 C-15.46970842 5.59070848 -13.02420254 5.59092886 -10.57666016 5.58349609 C-9.85030869 5.59990143 -9.12395721 5.61630676 -8.37559509 5.63320923 C-6.11693505 5.66106476 -6.11693505 5.66106476 -3 5 C-0.95932358 2.60690634 -0.95932358 2.60690634 0 0 Z " fill="#199584" transform="translate(996,1185)"/>
<path d="M0 0 C0.7425 0.61875 1.485 1.2375 2.25 1.875 C4.81368029 3.99731914 4.81368029 3.99731914 7.25 5.125 C9 6 9 6 10 8 C12.02463255 8.65213292 12.02463255 8.65213292 14 9 C14 9.66 14 10.32 14 11 C14.66 11 15.32 11 16 11 C16 11.66 16 12.32 16 13 C16.73476562 13.26941406 17.46953125 13.53882813 18.2265625 13.81640625 C20.90344161 14.95879269 23.00841015 16.25867363 25.375 17.9375 C29.139297 20.51639024 32.74564544 22.37067272 37 24 C37 24.66 37 25.32 37 26 C37.556875 26.11472656 38.11375 26.22945312 38.6875 26.34765625 C41.32740212 27.09235837 43.56103889 28.18455809 46 29.4375 C47.2684375 30.08525391 47.2684375 30.08525391 48.5625 30.74609375 C49.366875 31.15988281 50.17125 31.57367187 51 32 C51.66515625 32.32871094 52.3303125 32.65742187 53.015625 32.99609375 C55.29428379 34.14887979 57.52085456 35.37930108 59.75 36.625 C60.94882813 37.29402344 60.94882813 37.29402344 62.171875 37.9765625 C62.77515625 38.31429688 63.3784375 38.65203125 64 39 C61 40 61 40 58.74194336 39.18652344 C57.86675049 38.74856445 56.99155762 38.31060547 56.08984375 37.859375 C55.10870605 37.37130371 54.12756836 36.88323242 53.11669922 36.38037109 C52.06756348 35.84234863 51.01842773 35.30432617 49.9375 34.75 C48.86000488 34.2029541 47.78250977 33.6559082 46.67236328 33.09228516 C29.73554237 24.3815614 13.55465756 14.33223979 -1 2 C-0.67 1.34 -0.34 0.68 0 0 Z " fill="#3DC2B6" transform="translate(1100,1145)"/>
<path d="M0 0 C0.71259476 -0.00014603 1.42518951 -0.00029205 2.15937805 -0.0004425 C4.50765051 0.00025248 6.85584301 0.00802545 9.20410156 0.01586914 C10.83506222 0.01773479 12.46602344 0.019158 14.09698486 0.02015686 C18.38447626 0.02397045 22.67193364 0.03379085 26.95941162 0.04486084 C31.33654317 0.05509986 35.71368023 0.05965982 40.09082031 0.06469727 C48.67547132 0.07541416 57.26009471 0.09247667 65.84472656 0.11352539 C65.84472656 0.44352539 65.84472656 0.77352539 65.84472656 1.11352539 C42.41472656 1.11352539 18.98472656 1.11352539 -5.15527344 1.11352539 C-5.15527344 1.77352539 -5.15527344 2.43352539 -5.15527344 3.11352539 C-6.90478912 4.07274261 -8.65490588 5.03086356 -10.40527344 5.98852539 C-11.86707031 6.7890332 -11.86707031 6.7890332 -13.35839844 7.60571289 C-15.60657752 8.81772005 -17.86255393 9.98900106 -20.15527344 11.11352539 C-18.97408496 6.52001464 -16.73158423 4.72170647 -13.00683594 2.12915039 C-8.81236634 -0.17161353 -4.71628756 -0.00813153 0 0 Z " fill="#58ECBE" transform="translate(729.1552734375,542.886474609375)"/>
<path d="M0 0 C33.66 0.33 67.32 0.66 102 1 C102 1.33 102 1.66 102 2 C87.83939214 3.03659352 73.72786057 3.10613386 59.53344727 3.01586914 C57.68899344 3.00431575 55.84449001 3 54 3 C36.33333333 3 18.66666667 3 1 3 C0.34 3.66 -0.32 4.32 -1 5 C-0.67 3.35 -0.34 1.7 0 0 Z " fill="#75DEC6" transform="translate(715,1003)"/>
<path d="M0 0 C0 17.82 0 35.64 0 54 C-0.33 54 -0.66 54 -1 54 C-1.33 37.83 -1.66 21.66 -2 5 C-4.00840249 6.00420124 -6.01699699 7.00902965 -8 8.0625 C-9.98934744 8.99500661 -11.85678743 9.54074016 -14 10 C-4.57142857 0 -4.57142857 0 0 0 Z " fill="#3DC2A7" transform="translate(1383,1055)"/>
<path d="M0 0 C0.66 0 1.32 0 2 0 C2 0.66 2 1.32 2 2 C2.99 2 3.98 2 5 2 C5.33 3.98 5.66 5.96 6 8 C6.66 8 7.32 8 8 8 C8.2475 8.5775 8.495 9.155 8.75 9.75 C9.92381027 12.13114342 9.92381027 12.13114342 12.125 14 C14 16 14 16 14 20 C14.61875 20.103125 15.2375 20.20625 15.875 20.3125 C18 21 18 21 20 24 C20.69313908 25.65583225 21.36474424 27.32110979 22 29 C21.01 29 20.02 29 19 29 C17.5612793 27.5222168 17.5612793 27.5222168 16.07421875 25.44921875 C15.52725342 24.69237793 14.98028809 23.93553711 14.41674805 23.15576172 C13.56077026 21.93397217 13.56077026 21.93397217 12.6875 20.6875 C11.81508667 19.46184326 11.81508667 19.46184326 10.92504883 18.21142578 C6.81181883 12.35684943 3.11303141 6.4534989 0 0 Z " fill="#63D3C0" transform="translate(1040,1078)"/>
<path d="M0 0 C0.33 0.66 0.66 1.32 1 2 C3.78206355 2.97682177 6.15675535 3.07162857 9.07421875 2.84375 C9.82380859 2.79089844 10.57339844 2.73804688 11.34570312 2.68359375 C12.11849609 2.62300781 12.89128906 2.56242187 13.6875 2.5 C16.46183591 2.28571276 19.21851865 2.11823513 22 2 C22.33 2.33 22.66 2.66 23 3 C24.70563778 3.15740605 26.41727244 3.25093392 28.12890625 3.31640625 C29.68061523 3.37924805 29.68061523 3.37924805 31.26367188 3.44335938 C32.35228516 3.48267578 33.44089844 3.52199219 34.5625 3.5625 C35.65498047 3.60568359 36.74746094 3.64886719 37.87304688 3.69335938 C40.58189564 3.79982068 43.29083992 3.90183516 46 4 C46 4.33 46 4.66 46 5 C31.15 5 16.3 5 1 5 C0.67 3.35 0.34 1.7 0 0 Z " fill="#23AE9F" transform="translate(891,1187)"/>
<path d="M0 0 C0.8125 1.625 0.8125 1.625 1 4 C-2.22529092 8.99399884 -6.2411216 12.2530599 -12 14 C-12.99 13.67 -13.98 13.34 -15 13 C-14.01 12.67 -13.02 12.34 -12 12 C-12 11.34 -12 10.68 -12 10 C-10.42638552 8.60639308 -8.79004275 7.28297912 -7.125 6 C-3.43096483 3.14925117 -3.43096483 3.14925117 0 0 Z " fill="#5CF5DB" transform="translate(809,573)"/>
<path d="M0 0 C4.38855677 1.72407587 6.91486937 4.82973873 9 9 C9.12335276 11.28919778 9.17558478 13.58251218 9.1875 15.875 C9.20167969 17.10992188 9.21585938 18.34484375 9.23046875 19.6171875 C9.01765455 22.74086712 8.65237226 24.40061596 7 27 C6.34 26.01 5.68 25.02 5 24 C5.66 24 6.32 24 7 24 C7.19318947 14.94250355 7.19318947 14.94250355 6 6 C4.11629529 4.6830333 4.11629529 4.6830333 2 4 C0.75 1.875 0.75 1.875 0 0 Z " fill="#5DF8DA" transform="translate(960,731)"/>
<path d="M0 0 C1.796875 0.53125 1.796875 0.53125 4 2 C5.2597977 4.5195954 6.28771929 6.87336642 7.25 9.5 C7.518125 10.18964844 7.78625 10.87929688 8.0625 11.58984375 C10 16.66095344 10 16.66095344 10 19 C9.01 19 8.02 19 7 19 C5.82905995 16.2100561 4.66309073 13.41821403 3.5 10.625 C2.99919922 9.43390625 2.99919922 9.43390625 2.48828125 8.21875 C2.17246094 7.45820312 1.85664062 6.69765625 1.53125 5.9140625 C1.23798828 5.2123291 0.94472656 4.5105957 0.64257812 3.78759766 C0 2 0 2 0 0 Z " fill="#131922" transform="translate(781,919)"/>
<path d="M0 0 C0.57492187 0.21914063 1.14984375 0.43828125 1.7421875 0.6640625 C0.45253574 2.03969104 -0.88470543 3.37172643 -2.2578125 4.6640625 C-2.9178125 4.6640625 -3.5778125 4.6640625 -4.2578125 4.6640625 C-4.4640625 5.2828125 -4.6703125 5.9015625 -4.8828125 6.5390625 C-6.80557138 9.51059895 -8.92375777 9.79430909 -12.2578125 10.6640625 C-11.10040403 5.74507652 -8.14440043 3.64876725 -4.328125 0.703125 C-2.2578125 -0.3359375 -2.2578125 -0.3359375 0 0 Z " fill="#5BE9BE" transform="translate(885.2578125,544.3359375)"/>
<path d="M0 0 C3 2 3 2 3.9375 3.6875 C4.03782646 7.39957905 2.2102683 10.15822647 0 13 C-2.75 14.9375 -2.75 14.9375 -5 16 C-3.41078475 10.63904723 -1.81027062 5.29156027 0 0 Z " fill="#B7D1DC" transform="translate(547,1169)"/>
<path d="M0 0 C0.7425 0.61875 1.485 1.2375 2.25 1.875 C4.81368029 3.99731914 4.81368029 3.99731914 7.25 5.125 C9 6 9 6 10 8 C12.02463255 8.65213292 12.02463255 8.65213292 14 9 C14 9.66 14 10.32 14 11 C14.66 11 15.32 11 16 11 C16 11.66 16 12.32 16 13 C16.78375 13.268125 17.5675 13.53625 18.375 13.8125 C21 15 21 15 23 18 C18.73152556 16.51358525 15.22555677 14.27948754 11.5625 11.6875 C10.74168945 11.11999023 10.74168945 11.11999023 9.90429688 10.54101562 C6.09791845 7.87880302 2.53516362 5.01262058 -1 2 C-0.67 1.34 -0.34 0.68 0 0 Z " fill="#4CC9BD" transform="translate(1100,1145)"/>
<path d="M0 0 C3.16857009 0.92329195 4.6507487 1.39189186 6.328125 4.3125 C6.63234375 5.199375 6.9365625 6.08625 7.25 7 C7.56453125 7.886875 7.8790625 8.77375 8.203125 9.6875 C8.46609375 10.450625 8.7290625 11.21375 9 12 C9.33 12.66 9.66 13.32 10 14 C5.76684507 12.43216484 3.57358834 9.61693496 1 6 C0.1875 2.625 0.1875 2.625 0 0 Z " fill="#62F5D5" transform="translate(928,751)"/>
<path d="M0 0 C4.75 0.875 4.75 0.875 7 2 C7 2.66 7 3.32 7 4 C7.66 4.33 8.32 4.66 9 5 C10.33333333 6.66666667 11.66666667 8.33333333 13 10 C13.66 10.33 14.32 10.66 15 11 C14.67 11.66 14.34 12.32 14 13 C12.41111701 11.77801556 10.82913536 10.54705525 9.25 9.3125 C7.92742187 8.28576172 7.92742187 8.28576172 6.578125 7.23828125 C4.01771584 5.01538057 2.02943654 2.70749594 0 0 Z " fill="#52CDBE" transform="translate(1084,1133)"/>
<path d="M0 0 C3.85025879 0.60355408 6.86101159 1.76772603 10.3125 3.5625 C11.19550781 4.01753906 12.07851562 4.47257812 12.98828125 4.94140625 C13.65214844 5.29074219 14.31601563 5.64007812 15 6 C15 6.66 15 7.32 15 8 C15.928125 8.1546875 15.928125 8.1546875 16.875 8.3125 C19 9 19 9 21 12 C15.84313143 10.53005148 11.65471168 8.21589873 7.125 5.4375 C6.43664063 5.02564453 5.74828125 4.61378906 5.0390625 4.18945312 C3.33910553 3.15902286 1.66662278 2.08351684 0 1 C0 0.67 0 0.34 0 0 Z " fill="#47BBB0" transform="translate(1122,1163)"/>
<path d="M0 0 C0.66 0.66 1.32 1.32 2 2 C0.38405168 4.04119788 -1.2856382 6.04072937 -3 8 C-3.66 8 -4.32 8 -5 8 C-5.66 11.96 -6.32 15.92 -7 20 C-7.33 20 -7.66 20 -8 20 C-8.54971837 13.40337958 -7.82946824 8.51132929 -4 3 C-1.75 1 -1.75 1 0 0 Z " fill="#4EE1B9" transform="translate(552,739)"/>
<path d="M0 0 C0.66 0.33 1.32 0.66 2 1 C1.525625 1.37125 1.05125 1.7425 0.5625 2.125 C-1.53672427 4.64406912 -1.54961213 6.78294381 -2 10 C-2.62225605 11.68375165 -3.27544365 13.35767228 -4 15 C-4.99 13.68 -5.98 12.36 -7 11 C-6.21258141 9.53936857 -5.4199095 8.08156827 -4.625 6.625 C-4.18414063 5.81289063 -3.74328125 5.00078125 -3.2890625 4.1640625 C-2 2 -2 2 0 0 Z " fill="#1A2225" transform="translate(875,545)"/>
<path d="M0 0 C-0.96099609 0.4021875 -0.96099609 0.4021875 -1.94140625 0.8125 C-8.53698924 3.80066279 -12.66640912 7.21709561 -17 13 C-17.33 12.34 -17.66 11.68 -18 11 C-16.92173635 9.72486237 -15.83714481 8.45507431 -14.75 7.1875 C-14.14671875 6.47980469 -13.5434375 5.77210938 -12.921875 5.04296875 C-9.03706546 0.91338463 -5.75107717 -1.78481705 0 0 Z " fill="#54E6C6" transform="translate(946,727)"/>
<path d="M0 0 C1.33804687 0.04060547 1.33804687 0.04060547 2.703125 0.08203125 C3.37859375 0.11683594 4.0540625 0.15164063 4.75 0.1875 C4.75 0.8475 4.75 1.5075 4.75 2.1875 C6.07 2.5175 7.39 2.8475 8.75 3.1875 C2.81 3.1875 -3.13 3.1875 -9.25 3.1875 C-5.16748364 0.12561273 -4.68502071 -0.18493503 0 0 Z " fill="#5DFEE1" transform="translate(1149.25,584.8125)"/>
<path d="M0 0 C2 3 2 3 2 7 C-4.27 7 -10.54 7 -17 7 C-17 6.67 -17 6.34 -17 6 C-16.02417969 5.98582031 -15.04835938 5.97164062 -14.04296875 5.95703125 C-12.77066406 5.90933594 -11.49835937 5.86164063 -10.1875 5.8125 C-8.92292969 5.77769531 -7.65835938 5.74289062 -6.35546875 5.70703125 C-2.8234665 5.34379606 -2.8234665 5.34379606 -1.05078125 2.44921875 C-0.70402344 1.64097656 -0.35726562 0.83273437 0 0 Z " fill="#1F9585" transform="translate(996,1185)"/>
<path d="M0 0 C4.95 0 9.9 0 15 0 C14.01 1.485 14.01 1.485 13 3 C10.46875 3.3984375 10.46875 3.3984375 7.5 3.375 C6.5203125 3.38273437 5.540625 3.39046875 4.53125 3.3984375 C3.6959375 3.26695313 2.860625 3.13546875 2 3 C1.34 2.01 0.68 1.02 0 0 Z " fill="#03080D" transform="translate(599,1193)"/>
<path d="M0 0 C1.37478516 0.01740234 1.37478516 0.01740234 2.77734375 0.03515625 C3.69644531 0.04417969 4.61554687 0.05320312 5.5625 0.0625 C6.27277344 0.07410156 6.98304688 0.08570313 7.71484375 0.09765625 C7.71484375 0.42765625 7.71484375 0.75765625 7.71484375 1.09765625 C7.12316406 1.11183594 6.53148437 1.12601563 5.921875 1.140625 C1.69037605 1.39603358 -0.7178182 1.68724149 -4.22265625 4.22265625 C-6.63902637 7.59092975 -7.41777634 10.07616756 -8.28515625 14.09765625 C-8.61515625 14.09765625 -8.94515625 14.09765625 -9.28515625 14.09765625 C-8.91607108 6.83898117 -8.91607108 6.83898117 -5.78515625 3.16015625 C-4.96015625 2.47953125 -4.13515625 1.79890625 -3.28515625 1.09765625 C-2.28515625 0.09765625 -2.28515625 0.09765625 0 0 Z " fill="#35434C" transform="translate(555.28515625,944.90234375)"/>
<path d="M0 0 C2 1.3125 2 1.3125 4 3 C4 3.99 4 4.98 4 6 C5.65 6 7.3 6 9 6 C9 6.33 9 6.66 9 7 C5.37 7 1.74 7 -2 7 C-1.34 4.69 -0.68 2.38 0 0 Z " fill="#35C3AA" transform="translate(680,1095)"/>
<path d="M0 0 C-0.25 1.875 -0.25 1.875 -1 4 C-2.8125 5.125 -2.8125 5.125 -5 6 C-5.99 6.5259375 -5.99 6.5259375 -7 7.0625 C-8.98934744 7.99500661 -10.85678743 8.54074016 -13 9 C-4.5 0 -4.5 0 0 0 Z " fill="#60E7BF" transform="translate(1382,1056)"/>
<path d="M0 0 C0.33 0 0.66 0 1 0 C1.08131463 1.43655854 1.13933559 2.8744483 1.1875 4.3125 C1.22230469 5.11300781 1.25710938 5.91351562 1.29296875 6.73828125 C1 9 1 9 -0.375 10.75 C-2.2280301 12.17540777 -3.71327513 12.60573709 -6 13 C-5.071875 11.7315625 -5.071875 11.7315625 -4.125 10.4375 C-1.86952264 7.08627655 -0.93874355 3.91143146 0 0 Z " fill="#59FAD8" transform="translate(583,754)"/>
<path d="M0 0 C7.625 1.75 7.625 1.75 11 4 C11 4.66 11 5.32 11 6 C7.37 5.01 3.74 4.02 0 3 C0 2.01 0 1.02 0 0 Z " fill="#131D28" transform="translate(1334,685)"/>
<path d="M0 0 C3.67758005 3.28355362 5.81389118 6.62778237 8 11 C7.67 11.66 7.34 12.32 7 13 C6.34 12.67 5.68 12.34 5 12 C5 10.68 5 9.36 5 8 C4.360625 7.79375 3.72125 7.5875 3.0625 7.375 C1 6 1 6 0.25 2.875 C0.1675 1.92625 0.085 0.9775 0 0 Z " fill="#5AE8BF" transform="translate(636,547)"/>
<path d="M0 0 C0.66 0 1.32 0 2 0 C0.6062718 4.43458973 -1.60582235 6.87378374 -5 10 C-5.66 9.34 -6.32 8.68 -7 8 C-5.88200014 6.66079162 -4.75538103 5.32877444 -3.625 4 C-2.68527344 2.88625 -2.68527344 2.88625 -1.7265625 1.75 C-1.15679688 1.1725 -0.58703125 0.595 0 0 Z " fill="#5DECCD" transform="translate(1264,939)"/>
<path d="M0 0 C2.61940964 2.50552226 3.95696227 3.85347491 4.09765625 7.6015625 C4.08605469 8.59929688 4.07445312 9.59703125 4.0625 10.625 C4.05347656 11.62789062 4.04445313 12.63078125 4.03515625 13.6640625 C4.02355469 14.43492187 4.01195312 15.20578125 4 16 C3.67 16 3.34 16 3 16 C2.67 12.37 2.34 8.74 2 5 C1.34 5 0.68 5 0 5 C0 3.35 0 1.7 0 0 Z " fill="#5BEFCB" transform="translate(581,744)"/>
<path d="M0 0 C2.31 0 4.62 0 7 0 C7 1.65 7 3.3 7 5 C4.03 4.505 4.03 4.505 1 4 C0.67 2.68 0.34 1.36 0 0 Z " fill="#5BF1D3" transform="translate(581,616)"/>
<path d="M0 0 C0.99 0.66 1.98 1.32 3 2 C2.40312566 5.34249629 1.26396123 7.46436342 -1 10 C-1.66 10 -2.32 10 -3 10 C-2.01 6.7 -1.02 3.4 0 0 Z " fill="#A8C3D0" transform="translate(547,1169)"/>
<path d="M0 0 C0.99 0.33 1.98 0.66 3 1 C1.88200014 2.33920838 0.75538103 3.67122556 -0.375 5 C-1.00148438 5.7425 -1.62796875 6.485 -2.2734375 7.25 C-3.12808594 8.11625 -3.12808594 8.11625 -4 9 C-4.66 9 -5.32 9 -6 9 C-4.68775452 5.06326356 -3.08089673 2.77280706 0 0 Z " fill="#58F0C3" transform="translate(1235,915)"/>
<path d="M0 0 C3.80802445 1.4960096 5.69424557 3.66063151 8 7 C8.75 9.3125 8.75 9.3125 9 11 C8.01 10.67 7.02 10.34 6 10 C6 8.68 6 7.36 6 6 C5.38125 5.7525 4.7625 5.505 4.125 5.25 C1.64931313 3.79371361 1.04874998 2.62187494 0 0 Z " fill="#5AEFD5" transform="translate(960,731)"/>
<path d="M0 0 C1.98 0.495 1.98 0.495 4 1 C4 2.32 4 3.64 4 5 C2.35 4.67 0.7 4.34 -1 4 C-0.67 2.68 -0.34 1.36 0 0 Z " fill="#080B10" transform="translate(1508,1732)"/>
<path d="M0 0 C1.65 0 3.3 0 5 0 C5 1.65 5 3.3 5 5 C3.35 4.67 1.7 4.34 0 4 C0 2.68 0 1.36 0 0 Z " fill="#070A10" transform="translate(1702,1417)"/>
<path d="M0 0 C1.98 0.66 3.96 1.32 6 2 C6 2.66 6 3.32 6 4 C6.66 4 7.32 4 8 4 C8 4.66 8 5.32 8 6 C3.68607774 5.5206753 1.83430453 4.2542015 -1 1 C-0.67 0.67 -0.34 0.34 0 0 Z " fill="#5EF0D6" transform="translate(572,611)"/>
<path d="M0 0 C1.32 0 2.64 0 4 0 C4 1.65 4 3.3 4 5 C2.35 4.67 0.7 4.34 -1 4 C-0.67 2.68 -0.34 1.36 0 0 Z " fill="#070A0F" transform="translate(1688,1417)"/>
<path d="M0 0 C3.3 0 6.6 0 10 0 C10 0.66 10 1.32 10 2 C4.58461538 3.23076923 4.58461538 3.23076923 1.625 2.0625 C1.08875 1.711875 0.5525 1.36125 0 1 C0 0.67 0 0.34 0 0 Z " fill="#04090E" transform="translate(541,1193)"/>
<path d="M0 0 C1.32 0 2.64 0 4 0 C4 1.65 4 3.3 4 5 C2.68 5 1.36 5 0 5 C-0.5625 3.0625 -0.5625 3.0625 -1 1 C-0.67 0.67 -0.34 0.34 0 0 Z " fill="#080A0F" transform="translate(1718,1447)"/>
<path d="M0 0 C1.98 0.99 1.98 0.99 4 2 C4 2.66 4 3.32 4 4 C5.32 4.66 6.64 5.32 8 6 C6.1875 6.6875 6.1875 6.6875 4 7 C1.81974318 5.4657452 1.11209475 4.35666511 0.3125 1.8125 C0.209375 1.214375 0.10625 0.61625 0 0 Z " fill="#54DEC9" transform="translate(1079,1126)"/>
<path d="M0 0 C2.375 0.8125 2.375 0.8125 4.375 2.8125 C0.39303543 3.86654945 -2.60695309 3.65348656 -6.625 2.8125 C-4.2650337 0.62734602 -3.28118881 -0.23437063 0 0 Z " fill="#22303C" transform="translate(1306.625,677.1875)"/>
<path d="M0 0 C1.98 0 3.96 0 6 0 C3.47211993 2.79872437 1.79588866 4.45773019 -2 5 C-1.34 3.35 -0.68 1.7 0 0 Z " fill="#5AF0C7" transform="translate(875,550)"/>
<path d="M0 0 C0.99 0 1.98 0 3 0 C3 1.65 3 3.3 3 5 C1.35 4.67 -0.3 4.34 -2 4 C-1.34 2.68 -0.68 1.36 0 0 Z " fill="#080B11" transform="translate(1486,1747)"/>
<path d="M0 0 C5.61 0 11.22 0 17 0 C17 0.33 17 0.66 17 1 C15.56274129 1.16873478 14.12518162 1.33490737 12.6875 1.5 C11.88699219 1.5928125 11.08648438 1.685625 10.26171875 1.78125 C6.62570132 2.13292008 3.55065822 1.76770989 0 1 C0 0.67 0 0.34 0 0 Z " fill="#80EDD4" transform="translate(764,1004)"/>
<path d="M0 0 C0.66 0.33 1.32 0.66 2 1 C-0.64 3.64 -3.28 6.28 -6 9 C-6 6 -6 6 -3.5625 3.375 C-2.716875 2.59125 -1.87125 1.8075 -1 1 C-0.67 0.67 -0.34 0.34 0 0 Z " fill="#50D3AB" transform="translate(716,545)"/>
<path d="M0 0 C1.32 0.33 2.64 0.66 4 1 C4 2.32 4 3.64 4 5 C2.68 5 1.36 5 0 5 C0 3.35 0 1.7 0 0 Z " fill="#080C12" transform="translate(1770,1402)"/>
<path d="M0 0 C1.65 0 3.3 0 5 0 C4.67 1.32 4.34 2.64 4 4 C2.68 4 1.36 4 0 4 C0 2.68 0 1.36 0 0 Z " fill="#070B11" transform="translate(1500,1718)"/>
<path d="M0 0 C0.66 0.33 1.32 0.66 2 1 C2 2.32 2 3.64 2 5 C3.32 5.33 4.64 5.66 6 6 C6 6.66 6 7.32 6 8 C5.34 8 4.68 8 4 8 C4 7.34 4 6.68 4 6 C3.01 6 2.02 6 1 6 C0.34 4.35 -0.32 2.7 -1 1 C-0.67 0.67 -0.34 0.34 0 0 Z " fill="#63E0C8" transform="translate(1052,1093)"/>
<path d="M0 0 C-1.28913487 0.67154933 -2.58140204 1.33708859 -3.875 2 C-4.59429688 2.37125 -5.31359375 2.7425 -6.0546875 3.125 C-8 4 -8 4 -10 4 C-9 1 -9 1 -6.6875 -0.25 C-3.83402593 -1.04631835 -2.75197675 -0.8214856 0 0 Z " fill="#4EDBBA" transform="translate(946,727)"/>
<path d="M0 0 C5.41538462 -0.36923077 5.41538462 -0.36923077 8.375 1.5 C8.91125 1.995 9.4475 2.49 10 3 C8.68 3.33 7.36 3.66 6 4 C6 3.34 6 2.68 6 2 C3.03 1.505 3.03 1.505 0 1 C0 0.67 0 0.34 0 0 Z " fill="#4CE6C4" transform="translate(949,726)"/>
<path d="M0 0 C0.99 0 1.98 0 3 0 C2.34 2.31 1.68 4.62 1 7 C0.34 7 -0.32 7 -1 7 C-0.67 4.69 -0.34 2.38 0 0 Z " fill="#192023" transform="translate(706,552)"/>
<path d="M0 0 C2 3 2 3 2 6 C0.35 6 -1.3 6 -3 6 C-2.01 4.02 -1.02 2.04 0 0 Z " fill="#29AFA2" transform="translate(996,1185)"/>
<path d="M0 0 C0.66 0.33 1.32 0.66 2 1 C2 1.66 2 2.32 2 3 C-0.64 3.33 -3.28 3.66 -6 4 C-4.03617993 2.49440461 -2.21736634 1.10868317 0 0 Z " fill="#5BF4D6" transform="translate(1254,948)"/>
<path d="M0 0 C3.26460973 1.80412643 4.88929795 2.83394693 7 6 C3.47190093 6 2.53184488 5.35723489 0 3 C0 2.01 0 1.02 0 0 Z " fill="#51DCB9" transform="translate(574,737)"/>
<path d="M0 0 C0.928125 0.0825 1.85625 0.165 2.8125 0.25 C1.8125 2.25 1.8125 2.25 -0.03515625 2.8828125 C-0.76605469 3.04523437 -1.49695313 3.20765625 -2.25 3.375 C-3.35021484 3.62636719 -3.35021484 3.62636719 -4.47265625 3.8828125 C-5.03855469 4.00398437 -5.60445312 4.12515625 -6.1875 4.25 C-4.36434338 1.00883268 -3.82500054 0.30000004 0 0 Z " fill="#5BFED0" transform="translate(890.1875,543.75)"/>
</svg>
